<svg width="140" height="30" viewBox="0 0 140 30" fill="none" xmlns="http://www.w3.org/2000/svg">
<mask id="mask0_6803_4542" style="mask-type:luminance" maskUnits="userSpaceOnUse" x="40" y="0" width="100" height="30">
<path d="M139.304 0.751709H40.7969V29.2483H139.304V0.751709Z" fill="white"/>
</mask>
<g mask="url(#mask0_6803_4542)">
<path d="M123.265 5.9266C124.695 5.9266 125.855 4.76817 125.855 3.33915C125.855 1.91014 124.695 0.751709 123.265 0.751709C121.835 0.751709 120.676 1.91014 120.676 3.33915C120.676 4.76817 121.835 5.9266 123.265 5.9266Z" fill="white"/>
<path d="M51.4238 1.63916L40.7969 28.6699H45.4728L48.3389 21.2558H59.4111L62.2444 28.6699H66.9589L56.3318 1.63916H51.4238ZM53.7811 6.65934H53.9359L58.1221 17.5099H49.5931L53.7792 6.65934H53.7811Z" fill="white"/>
<path d="M81.5084 10.0571C80.053 9.10568 78.2823 8.62793 76.1941 8.62793C74.1057 8.62793 72.4898 9.05337 71.0345 9.90237C69.5791 10.7514 68.4584 11.9619 67.6728 13.5322C66.887 15.1025 66.4941 16.9047 66.4941 18.9391C66.4941 20.9735 66.887 22.8397 67.6728 24.3847C68.4584 25.9299 69.5847 27.1269 71.0538 27.9759C72.5226 28.8249 74.2355 29.2503 76.1941 29.2503C77.7906 29.2503 79.2016 28.9854 80.4246 28.4592C81.6479 27.9314 82.6465 27.1927 83.4205 26.2392C84.1928 25.2879 84.7212 24.1932 85.0056 22.9576H80.9086C80.6511 23.7292 80.1228 24.4002 79.3235 24.9648C78.5241 25.5314 77.4811 25.8138 76.1941 25.8138C74.365 25.8138 72.9601 25.1776 71.9808 23.9032C71.224 22.919 70.7924 21.6369 70.6821 20.0607H85.1973C85.4798 17.8214 85.2998 15.8315 84.6573 14.0949C84.0128 12.3564 82.9638 11.0124 81.5084 10.0591V10.0571ZM71.3247 15.0386C71.7621 14.0349 72.3873 13.2691 73.198 12.7413C74.009 12.2133 74.9573 11.9502 76.0392 11.9502C77.276 11.9502 78.3055 12.2403 79.13 12.8186C79.9544 13.3987 80.5272 14.1702 80.8505 15.1353C81.0479 15.7271 81.1388 16.3632 81.1291 17.0459H70.7847C70.8796 16.3149 71.0596 15.6459 71.3247 15.0386Z" fill="white"/>
<path d="M114.686 9.53689C113.604 8.93164 112.315 8.62995 110.821 8.62995C109.145 8.62995 107.769 9.00307 106.685 9.74951C105.898 10.2929 105.255 11.0316 104.754 11.9581V1.63916H100.618V28.6699H104.754V19.0551C104.754 16.7905 105.211 15.085 106.126 13.9383C107.04 12.7934 108.296 12.2191 109.894 12.2191C111.234 12.2191 112.238 12.6252 112.908 13.4354C113.577 14.2458 113.912 15.4891 113.912 17.1619V28.6681H118.048V16.3111C118.048 14.6884 117.758 13.3058 117.179 12.1611C116.598 11.0163 115.768 10.1403 114.686 9.53501V9.53689Z" fill="white"/>
<path d="M125.352 9.20825H121.217V28.67H125.352V9.20825Z" fill="white"/>
<path d="M133.043 9.20825C131.652 9.20825 130.583 9.58138 129.836 10.3278C129.089 11.0743 128.716 12.1417 128.716 13.5322V28.6681H132.852V12.7606H139.306V9.20825H133.045H133.043Z" fill="white"/>
<path d="M91.7892 3.18433H87.6533V24.3442C87.6533 25.7345 88.0268 26.8019 88.774 27.5484C89.521 28.295 90.5892 28.6681 91.9808 28.6681H98.2416V25.1158H91.7873V12.7586H98.2416V9.20619H91.7873V3.18433H91.7892Z" fill="white"/>
</g>
<mask id="mask1_6803_4542" style="mask-type:luminance" maskUnits="userSpaceOnUse" x="0" y="1" width="36" height="28">
<path d="M35.1126 1.63013H0.695312V28.6217H35.1126V1.63013Z" fill="white"/>
</mask>
<g mask="url(#mask1_6803_4542)">
<path d="M21.5362 1.63013H14.2711C13.4343 1.63013 12.6717 2.10726 12.3087 2.85728L8.59454 10.5309C8.12973 11.4907 8.83229 12.6039 9.90329 12.6039H14.9155C15.6127 12.6039 16.2481 12.2062 16.5511 11.5809L17.9035 8.78695L24.8328 23.1005L15.4711 16.3558C15.0989 16.0884 14.6523 15.9436 14.1931 15.9436H7.34017C6.50316 15.9436 5.74079 16.4208 5.37779 17.1708L0.841134 26.5488C0.376397 27.5084 1.07894 28.6218 2.15 28.6218H7.16223C7.85935 28.6218 8.4946 28.2241 8.79779 27.5988L12.4812 19.9903L22.6289 27.6764C23.4385 28.2892 24.4261 28.6218 25.4427 28.6218H33.659C34.7302 28.6218 35.4327 27.5084 34.9679 26.5488L23.4985 2.85728C23.1355 2.10726 22.373 1.63013 21.5362 1.63013Z" fill="white"/>
</g>
</svg>
