<svg width="1440" height="800" viewBox="0 0 1440 800" fill="none" xmlns="http://www.w3.org/2000/svg">
<mask id="mask0_5437_5119" style="mask-type:alpha" maskUnits="userSpaceOnUse" x="0" y="0" width="1440" height="800">
<rect width="1440" height="800" fill="#D9D9D9"/>
</mask>
<g mask="url(#mask0_5437_5119)">
<g opacity="0.4">
<mask id="mask1_5437_5119" style="mask-type:luminance" maskUnits="userSpaceOnUse" x="-240" y="-85" width="1921" height="1081">
<path d="M1680.8 -84.6H-239.2V995.4H1680.8V-84.6Z" fill="white"/>
</mask>
<g mask="url(#mask1_5437_5119)">
<g opacity="0.76">
<path d="M1776.7 82.4H670.8" stroke="white" stroke-width="0.8719" stroke-miterlimit="10"/>
<path d="M1776.7 184.7H670.8" stroke="white" stroke-width="0.8719" stroke-miterlimit="10"/>
<path d="M1776.7 286.9H670.8" stroke="white" stroke-width="0.8719" stroke-miterlimit="10"/>
<path d="M1776.7 389.1H670.8" stroke="white" stroke-width="0.8719" stroke-miterlimit="10"/>
<path d="M1776.7 491.3H670.8" stroke="white" stroke-width="0.8719" stroke-miterlimit="10"/>
<path d="M1776.7 593.6H670.8" stroke="white" stroke-width="0.8719" stroke-miterlimit="10"/>
<path d="M1776.7 695.8H670.8" stroke="white" stroke-width="0.8719" stroke-miterlimit="10"/>
<path d="M1776.7 798H670.8" stroke="white" stroke-width="0.8719" stroke-miterlimit="10"/>
<path d="M771.3 1002.5V-122" stroke="white" stroke-width="0.8719" stroke-miterlimit="10"/>
<path d="M871.899 1002.5V-122" stroke="white" stroke-width="0.8719" stroke-miterlimit="10"/>
<path d="M972.399 1002.5V-122" stroke="white" stroke-width="0.8719" stroke-miterlimit="10"/>
<path d="M1072.9 1002.5V-122" stroke="white" stroke-width="0.8719" stroke-miterlimit="10"/>
<path d="M1173.5 1002.5V-122" stroke="white" stroke-width="0.8719" stroke-miterlimit="10"/>
<path d="M1274 1002.5V-122" stroke="white" stroke-width="0.8719" stroke-miterlimit="10"/>
<path d="M1374.5 1002.5V-122" stroke="white" stroke-width="0.8719" stroke-miterlimit="10"/>
</g>
<g opacity="0.76">
<path d="M670.4 82.4H-335" stroke="white" stroke-width="0.8719" stroke-miterlimit="10"/>
<path d="M670.4 184.7H-335" stroke="white" stroke-width="0.8719" stroke-miterlimit="10"/>
<path d="M670.4 286.9H-335" stroke="white" stroke-width="0.8719" stroke-miterlimit="10"/>
<path d="M670.4 389.1H-335" stroke="white" stroke-width="0.8719" stroke-miterlimit="10"/>
<path d="M670.4 491.3H-335" stroke="white" stroke-width="0.8719" stroke-miterlimit="10"/>
<path d="M670.4 593.6H-335" stroke="white" stroke-width="0.8719" stroke-miterlimit="10"/>
<path d="M670.4 695.8H-335" stroke="white" stroke-width="0.8719" stroke-miterlimit="10"/>
<path d="M670.4 798H-335" stroke="white" stroke-width="0.8719" stroke-miterlimit="10"/>
<path d="M67.0996 1002.5V-122" stroke="white" stroke-width="0.8719" stroke-miterlimit="10"/>
<path d="M167.7 1002.5V-122" stroke="white" stroke-width="0.8719" stroke-miterlimit="10"/>
<path d="M268.2 1002.5V-122" stroke="white" stroke-width="0.8719" stroke-miterlimit="10"/>
<path d="M368.8 1002.5V-122" stroke="white" stroke-width="0.8719" stroke-miterlimit="10"/>
<path d="M469.3 1002.5V-122" stroke="white" stroke-width="0.8719" stroke-miterlimit="10"/>
<path d="M569.8 1002.5V-122" stroke="white" stroke-width="0.8719" stroke-miterlimit="10"/>
<path d="M670.4 1002.5V-122" stroke="white" stroke-width="0.8719" stroke-miterlimit="10"/>
</g>
</g>
</g>
</g>
</svg>
