<svg viewBox="0 0 949 288" fill="none" preserveAspectRatio="xMidYMid meet" height="100%" role="img"
    aria-label="Aethir Logo">
    <g clip-path="url(#clip0_451_2119)">
        <path
            d="M745.082 94.6082C752.71 94.6082 758.893 88.4299 758.893 80.8085C758.893 73.1871 752.71 67.0088 745.082 67.0088C737.455 67.0088 731.272 73.1871 731.272 80.8085C731.272 88.4299 737.455 94.6082 745.082 94.6082Z"
            fill="white"></path>
        <path
            d="M361.925 71.7428L305.248 215.907H330.186L345.472 176.365H404.524L419.635 215.907H444.779L388.101 71.7428H361.925ZM374.497 98.5171H375.323L397.649 156.387H352.161L374.487 98.5171H374.497Z"
            fill="white"></path>
        <path
            d="M522.378 116.638C514.616 111.564 505.172 109.016 494.035 109.016C482.897 109.016 474.279 111.285 466.517 115.813C458.755 120.341 452.778 126.797 448.588 135.172C444.397 143.547 442.302 153.159 442.302 164.009C442.302 174.859 444.397 184.812 448.588 193.052C452.778 201.293 458.785 207.677 466.62 212.205C474.454 216.733 483.589 219.002 494.035 219.002C502.55 219.002 510.075 217.589 516.598 214.783C523.122 211.968 528.448 208.028 532.576 202.943C536.695 197.869 539.513 192.031 541.03 185.441H519.179C517.806 189.556 514.988 193.135 510.725 196.146C506.462 199.168 500.899 200.674 494.035 200.674C484.28 200.674 476.787 197.281 471.564 190.484C467.528 185.235 465.226 178.397 464.638 169.991H542.052C543.559 158.048 542.599 147.435 539.172 138.173C535.735 128.901 530.14 121.733 522.378 116.649V116.638ZM468.065 143.206C470.398 137.853 473.732 133.769 478.056 130.954C482.381 128.138 487.439 126.735 493.209 126.735C499.805 126.735 505.296 128.282 509.693 131.366C514.09 134.46 517.145 138.575 518.869 143.722C519.922 146.878 520.407 150.271 520.355 153.912H465.185C465.691 150.013 466.651 146.445 468.065 143.206Z"
            fill="white"></path>
        <path
            d="M699.326 113.864C693.556 110.636 686.681 109.027 678.713 109.027C669.774 109.027 662.435 111.017 656.655 114.998C652.454 117.896 649.027 121.836 646.354 126.777V71.7428H624.296V215.907H646.354V164.628C646.354 152.55 648.79 143.454 653.672 137.338C658.544 131.232 665.243 128.169 673.769 128.169C680.912 128.169 686.269 130.335 689.84 134.656C693.411 138.978 695.197 145.609 695.197 154.531V215.897H717.255V149.993C717.255 141.339 715.707 133.965 712.62 127.86C709.524 121.754 705.096 117.082 699.326 113.854V113.864Z"
            fill="white"></path>
        <path d="M756.209 112.111H734.152V215.907H756.209V112.111Z" fill="white"></path>
        <path
            d="M797.228 112.111C789.807 112.111 784.109 114.101 780.125 118.082C776.141 122.063 774.149 127.756 774.149 135.172V215.897H796.206V131.057H830.63V112.111H797.239H797.228Z"
            fill="white"></path>
        <path
            d="M577.208 79.9834H555.15V192.836C555.15 200.251 557.142 205.944 561.127 209.925C565.111 213.907 570.808 215.897 578.23 215.897H611.621V196.951H577.198V131.046H611.621V112.1H577.198V79.9834H577.208Z"
            fill="white"></path>
    </g>
    <g clip-path="url(#clip1_451_2119)">
        <path
            d="M202.521 71.6943H163.774C159.311 71.6943 155.244 74.239 153.308 78.2391L133.499 119.165C131.02 124.284 134.767 130.221 140.479 130.221H167.211C170.929 130.221 174.318 128.1 175.934 124.765L183.147 109.864L220.103 186.203L170.174 150.231C168.189 148.805 165.807 148.033 163.358 148.033H126.809C122.345 148.033 118.279 150.578 116.343 154.578L92.1475 204.594C89.6689 209.712 93.4158 215.65 99.1281 215.65H125.86C129.578 215.65 132.966 213.529 134.583 210.194L154.228 169.615L208.349 210.608C212.667 213.876 217.934 215.65 223.356 215.65H267.176C272.889 215.65 276.636 209.712 274.157 204.594L212.987 78.2391C211.051 74.239 206.984 71.6943 202.521 71.6943Z"
            fill="#d7fe51"></path>
    </g>
    <defs>
        <clipPath id="clip0_451_2119">
            <rect width="525.372" height="151.982" fill="white" transform="translate(305.248 67.0088)"></rect>
        </clipPath>
        <clipPath id="clip1_451_2119">
            <rect width="183.559" height="143.955" fill="white" transform="translate(91.373 71.6943)"></rect>
        </clipPath>
    </defs>
</svg>