<svg width="1149" height="808" viewBox="0 0 1149 808" fill="none" xmlns="http://www.w3.org/2000/svg">
<g opacity="0.3" filter="url(#filter0_f_57_1167)">
<ellipse cx="658.5" cy="180.5" rx="81" ry="81.5" transform="rotate(-180 658.5 180.5)" fill="url(#paint0_linear_57_1167)"/>
</g>
<g opacity="0.2" filter="url(#filter1_f_57_1167)">
<ellipse cx="526.5" cy="187.5" rx="118" ry="118.5" transform="rotate(-180 526.5 187.5)" fill="url(#paint1_linear_57_1167)"/>
</g>
<g style="mix-blend-mode:overlay" opacity="0.2">
<path d="M0.5 115.421V77H36.3636M0.5 115.421V153.842M0.5 115.421H36.3636M0.5 153.842V192.263M0.5 153.842H36.3636M0.5 192.263V230.684M0.5 192.263H36.3636M0.5 230.684V269.105M0.5 230.684H36.3636M0.5 269.105V307.526M0.5 269.105H36.3636M0.5 307.526V345.947M0.5 307.526H36.3636M0.5 345.947V384.368M0.5 345.947H36.3636M0.5 384.368V422.789M0.5 384.368H36.3636M0.5 422.789V461.211M0.5 422.789H36.3636M0.5 461.211V499.632M0.5 461.211H36.3636M0.5 499.632V538.053M0.5 499.632H36.3636M0.5 538.053V576.474M0.5 538.053H36.3636M0.5 576.474V614.895M0.5 576.474H36.3636M0.5 614.895V653.316M0.5 614.895H36.3636M0.5 653.316V691.737M0.5 653.316H36.3636M0.5 691.737V730.158M0.5 691.737H36.3636M0.5 730.158V768.579M0.5 730.158H36.3636M0.5 768.579V807H36.3636M0.5 768.579H36.3636M36.3636 77V115.421M36.3636 77H72.2273M36.3636 115.421V153.842M36.3636 115.421H72.2273M36.3636 153.842V192.263M36.3636 153.842H72.2273M36.3636 192.263V230.684M36.3636 192.263H72.2273M36.3636 230.684V269.105M36.3636 230.684H72.2273M36.3636 269.105V307.526M36.3636 269.105H72.2273M36.3636 307.526V345.947M36.3636 307.526H72.2273M36.3636 345.947V384.368M36.3636 345.947H72.2273M36.3636 384.368V422.789M36.3636 384.368H72.2273M36.3636 422.789V461.211M36.3636 422.789H72.2273M36.3636 461.211V499.632M36.3636 461.211H72.2273M36.3636 499.632V538.053M36.3636 499.632H72.2273M36.3636 538.053V576.474M36.3636 538.053H72.2273M36.3636 576.474V614.895M36.3636 576.474H72.2273M36.3636 614.895V653.316M36.3636 614.895H72.2273M36.3636 653.316V691.737M36.3636 653.316H72.2273M36.3636 691.737V730.158M36.3636 691.737H72.2273M36.3636 730.158V768.579M36.3636 730.158H72.2273M36.3636 768.579V807M36.3636 768.579H72.2273M36.3636 807H72.2273M72.2273 77V115.421M72.2273 77H108.091M72.2273 115.421V153.842M72.2273 115.421H108.091M72.2273 153.842V192.263M72.2273 153.842H108.091M72.2273 192.263V230.684M72.2273 192.263H108.091M72.2273 230.684V269.105M72.2273 230.684H108.091M72.2273 269.105V307.526M72.2273 269.105H108.091M72.2273 307.526V345.947M72.2273 307.526H108.091M72.2273 345.947V384.368M72.2273 345.947H108.091M72.2273 384.368V422.789M72.2273 384.368H108.091M72.2273 422.789V461.211M72.2273 422.789H108.091M72.2273 461.211V499.632M72.2273 461.211H108.091M72.2273 499.632V538.053M72.2273 499.632H108.091M72.2273 538.053V576.474M72.2273 538.053H108.091M72.2273 576.474V614.895M72.2273 576.474H108.091M72.2273 614.895V653.316M72.2273 614.895H108.091M72.2273 653.316V691.737M72.2273 653.316H108.091M72.2273 691.737V730.158M72.2273 691.737H108.091M72.2273 730.158V768.579M72.2273 730.158H108.091M72.2273 768.579V807M72.2273 768.579H108.091M72.2273 807H108.091M108.091 77V115.421M108.091 77H143.955M108.091 115.421V153.842M108.091 115.421H143.955M108.091 153.842V192.263M108.091 153.842H143.955M108.091 192.263V230.684M108.091 192.263H143.955M108.091 230.684V269.105M108.091 230.684H143.955M108.091 269.105V307.526M108.091 269.105H143.955M108.091 307.526V345.947M108.091 307.526H143.955M108.091 345.947V384.368M108.091 345.947H143.955M108.091 384.368V422.789M108.091 384.368H143.955M108.091 422.789V461.211M108.091 422.789H143.955M108.091 461.211V499.632M108.091 461.211H143.955M108.091 499.632V538.053M108.091 499.632H143.955M108.091 538.053V576.474M108.091 538.053H143.955M108.091 576.474V614.895M108.091 576.474H143.955M108.091 614.895V653.316M108.091 614.895H143.955M108.091 653.316V691.737M108.091 653.316H143.955M108.091 691.737V730.158M108.091 691.737H143.955M108.091 730.158V768.579M108.091 730.158H143.955M108.091 768.579V807M108.091 768.579H143.955M108.091 807H143.955M143.955 77V115.421M143.955 77H179.818M143.955 115.421V153.842M143.955 115.421H179.818M143.955 153.842V192.263M143.955 153.842H179.818M143.955 192.263V230.684M143.955 192.263H179.818M143.955 230.684V269.105M143.955 230.684H179.818M143.955 269.105V307.526M143.955 269.105H179.818M143.955 307.526V345.947M143.955 307.526H179.818M143.955 345.947V384.368M143.955 345.947H179.818M143.955 384.368V422.789M143.955 384.368H179.818M143.955 422.789V461.211M143.955 422.789H179.818M143.955 461.211V499.632M143.955 461.211H179.818M143.955 499.632V538.053M143.955 499.632H179.818M143.955 538.053V576.474M143.955 538.053H179.818M143.955 576.474V614.895M143.955 576.474H179.818M143.955 614.895V653.316M143.955 614.895H179.818M143.955 653.316V691.737M143.955 653.316H179.818M143.955 691.737V730.158M143.955 691.737H179.818M143.955 730.158V768.579M143.955 730.158H179.818M143.955 768.579V807M143.955 768.579H179.818M143.955 807H179.818M179.818 77V115.421M179.818 77H215.682M179.818 115.421V153.842M179.818 115.421H215.682M179.818 153.842V192.263M179.818 153.842H215.682M179.818 192.263V230.684M179.818 192.263H215.682M179.818 230.684V269.105M179.818 230.684H215.682M179.818 269.105V307.526M179.818 269.105H215.682M179.818 307.526V345.947M179.818 307.526H215.682M179.818 345.947V384.368M179.818 345.947H215.682M179.818 384.368V422.789M179.818 384.368H215.682M179.818 422.789V461.211M179.818 422.789H215.682M179.818 461.211V499.632M179.818 461.211H215.682M179.818 499.632V538.053M179.818 499.632H215.682M179.818 538.053V576.474M179.818 538.053H215.682M179.818 576.474V614.895M179.818 576.474H215.682M179.818 614.895V653.316M179.818 614.895H215.682M179.818 653.316V691.737M179.818 653.316H215.682M179.818 691.737V730.158M179.818 691.737H215.682M179.818 730.158V768.579M179.818 730.158H215.682M179.818 768.579V807M179.818 768.579H215.682M179.818 807H215.682M215.682 77V115.421M215.682 77H251.545M215.682 115.421V153.842M215.682 115.421H251.545M215.682 153.842V192.263M215.682 153.842H251.545M215.682 192.263V230.684M215.682 192.263H251.545M215.682 230.684V269.105M215.682 230.684H251.545M215.682 269.105V307.526M215.682 269.105H251.545M215.682 307.526V345.947M215.682 307.526H251.545M215.682 345.947V384.368M215.682 345.947H251.545M215.682 384.368V422.789M215.682 384.368H251.545M215.682 422.789V461.211M215.682 422.789H251.545M215.682 461.211V499.632M215.682 461.211H251.545M215.682 499.632V538.053M215.682 499.632H251.545M215.682 538.053V576.474M215.682 538.053H251.545M215.682 576.474V614.895M215.682 576.474H251.545M215.682 614.895V653.316M215.682 614.895H251.545M215.682 653.316V691.737M215.682 653.316H251.545M215.682 691.737V730.158M215.682 691.737H251.545M215.682 730.158V768.579M215.682 730.158H251.545M215.682 768.579V807M215.682 768.579H251.545M215.682 807H251.545M251.545 77V115.421M251.545 77H287.409M251.545 115.421V153.842M251.545 115.421H287.409M251.545 153.842V192.263M251.545 153.842H287.409M251.545 192.263V230.684M251.545 192.263H287.409M251.545 230.684V269.105M251.545 230.684H287.409M251.545 269.105V307.526M251.545 269.105H287.409M251.545 307.526V345.947M251.545 307.526H287.409M251.545 345.947V384.368M251.545 345.947H287.409M251.545 384.368V422.789M251.545 384.368H287.409M251.545 422.789V461.211M251.545 422.789H287.409M251.545 461.211V499.632M251.545 461.211H287.409M251.545 499.632V538.053M251.545 499.632H287.409M251.545 538.053V576.474M251.545 538.053H287.409M251.545 576.474V614.895M251.545 576.474H287.409M251.545 614.895V653.316M251.545 614.895H287.409M251.545 653.316V691.737M251.545 653.316H287.409M251.545 691.737V730.158M251.545 691.737H287.409M251.545 730.158V768.579M251.545 730.158H287.409M251.545 768.579V807M251.545 768.579H287.409M251.545 807H287.409M287.409 77V115.421M287.409 77H323.273M287.409 115.421V153.842M287.409 115.421H323.273M287.409 153.842V192.263M287.409 153.842H323.273M287.409 192.263V230.684M287.409 192.263H323.273M287.409 230.684V269.105M287.409 230.684H323.273M287.409 269.105V307.526M287.409 269.105H323.273M287.409 307.526V345.947M287.409 307.526H323.273M287.409 345.947V384.368M287.409 345.947H323.273M287.409 384.368V422.789M287.409 384.368H323.273M287.409 422.789V461.211M287.409 422.789H323.273M287.409 461.211V499.632M287.409 461.211H323.273M287.409 499.632V538.053M287.409 499.632H323.273M287.409 538.053V576.474M287.409 538.053H323.273M287.409 576.474V614.895M287.409 576.474H323.273M287.409 614.895V653.316M287.409 614.895H323.273M287.409 653.316V691.737M287.409 653.316H323.273M287.409 691.737V730.158M287.409 691.737H323.273M287.409 730.158V768.579M287.409 730.158H323.273M287.409 768.579V807M287.409 768.579H323.273M287.409 807H323.273M323.273 77V115.421M323.273 77H359.136M323.273 115.421V153.842M323.273 115.421H359.136M323.273 153.842V192.263M323.273 153.842H359.136M323.273 192.263V230.684M323.273 192.263H359.136M323.273 230.684V269.105M323.273 230.684H359.136M323.273 269.105V307.526M323.273 269.105H359.136M323.273 307.526V345.947M323.273 307.526H359.136M323.273 345.947V384.368M323.273 345.947H359.136M323.273 384.368V422.789M323.273 384.368H359.136M323.273 422.789V461.211M323.273 422.789H359.136M323.273 461.211V499.632M323.273 461.211H359.136M323.273 499.632V538.053M323.273 499.632H359.136M323.273 538.053V576.474M323.273 538.053H359.136M323.273 576.474V614.895M323.273 576.474H359.136M323.273 614.895V653.316M323.273 614.895H359.136M323.273 653.316V691.737M323.273 653.316H359.136M323.273 691.737V730.158M323.273 691.737H359.136M323.273 730.158V768.579M323.273 730.158H359.136M323.273 768.579V807M323.273 768.579H359.136M323.273 807H359.136M359.136 77V115.421M359.136 77H395M359.136 115.421V153.842M359.136 115.421H395M359.136 153.842V192.263M359.136 153.842H395M359.136 192.263V230.684M359.136 192.263H395M359.136 230.684V269.105M359.136 230.684H395M359.136 269.105V307.526M359.136 269.105H395M359.136 307.526V345.947M359.136 307.526H395M359.136 345.947V384.368M359.136 345.947H395M359.136 384.368V422.789M359.136 384.368H395M359.136 422.789V461.211M359.136 422.789H395M359.136 461.211V499.632M359.136 461.211H395M359.136 499.632V538.053M359.136 499.632H395M359.136 538.053V576.474M359.136 538.053H395M359.136 576.474V614.895M359.136 576.474H395M359.136 614.895V653.316M359.136 614.895H395M359.136 653.316V691.737M359.136 653.316H395M359.136 691.737V730.158M359.136 691.737H395M359.136 730.158V768.579M359.136 730.158H395M359.136 768.579V807M359.136 768.579H395M359.136 807H395M395 77V115.421M395 77H430.864M395 115.421V153.842M395 115.421H430.864M395 153.842V192.263M395 153.842H430.864M395 192.263V230.684M395 192.263H430.864M395 230.684V269.105M395 230.684H430.864M395 269.105V307.526M395 269.105H430.864M395 307.526V345.947M395 307.526H430.864M395 345.947V384.368M395 345.947H430.864M395 384.368V422.789M395 384.368H430.864M395 422.789V461.211M395 422.789H430.864M395 461.211V499.632M395 461.211H430.864M395 499.632V538.053M395 499.632H430.864M395 538.053V576.474M395 538.053H430.864M395 576.474V614.895M395 576.474H430.864M395 614.895V653.316M395 614.895H430.864M395 653.316V691.737M395 653.316H430.864M395 691.737V730.158M395 691.737H430.864M395 730.158V768.579M395 730.158H430.864M395 768.579V807M395 768.579H430.864M395 807H430.864M430.864 77V115.421M430.864 77H466.727M430.864 115.421V153.842M430.864 115.421H466.727M430.864 153.842V192.263M430.864 153.842H466.727M430.864 192.263V230.684M430.864 192.263H466.727M430.864 230.684V269.105M430.864 230.684H466.727M430.864 269.105V307.526M430.864 269.105H466.727M430.864 307.526V345.947M430.864 307.526H466.727M430.864 345.947V384.368M430.864 345.947H466.727M430.864 384.368V422.789M430.864 384.368H466.727M430.864 422.789V461.211M430.864 422.789H466.727M430.864 461.211V499.632M430.864 461.211H466.727M430.864 499.632V538.053M430.864 499.632H466.727M430.864 538.053V576.474M430.864 538.053H466.727M430.864 576.474V614.895M430.864 576.474H466.727M430.864 614.895V653.316M430.864 614.895H466.727M430.864 653.316V691.737M430.864 653.316H466.727M430.864 691.737V730.158M430.864 691.737H466.727M430.864 730.158V768.579M430.864 730.158H466.727M430.864 768.579V807M430.864 768.579H466.727M430.864 807H466.727M466.727 77V115.421M466.727 77H502.591M466.727 115.421V153.842M466.727 115.421H502.591M466.727 153.842V192.263M466.727 153.842H502.591M466.727 192.263V230.684M466.727 192.263H502.591M466.727 230.684V269.105M466.727 230.684H502.591M466.727 269.105V307.526M466.727 269.105H502.591M466.727 307.526V345.947M466.727 307.526H502.591M466.727 345.947V384.368M466.727 345.947H502.591M466.727 384.368V422.789M466.727 384.368H502.591M466.727 422.789V461.211M466.727 422.789H502.591M466.727 461.211V499.632M466.727 461.211H502.591M466.727 499.632V538.053M466.727 499.632H502.591M466.727 538.053V576.474M466.727 538.053H502.591M466.727 576.474V614.895M466.727 576.474H502.591M466.727 614.895V653.316M466.727 614.895H502.591M466.727 653.316V691.737M466.727 653.316H502.591M466.727 691.737V730.158M466.727 691.737H502.591M466.727 730.158V768.579M466.727 730.158H502.591M466.727 768.579V807M466.727 768.579H502.591M466.727 807H502.591M502.591 77V115.421M502.591 77H538.455M502.591 115.421V153.842M502.591 115.421H538.455M502.591 153.842V192.263M502.591 153.842H538.455M502.591 192.263V230.684M502.591 192.263H538.455M502.591 230.684V269.105M502.591 230.684H538.455M502.591 269.105V307.526M502.591 269.105H538.455M502.591 307.526V345.947M502.591 307.526H538.455M502.591 345.947V384.368M502.591 345.947H538.455M502.591 384.368V422.789M502.591 384.368H538.455M502.591 422.789V461.211M502.591 422.789H538.455M502.591 461.211V499.632M502.591 461.211H538.455M502.591 499.632V538.053M502.591 499.632H538.455M502.591 538.053V576.474M502.591 538.053H538.455M502.591 576.474V614.895M502.591 576.474H538.455M502.591 614.895V653.316M502.591 614.895H538.455M502.591 653.316V691.737M502.591 653.316H538.455M502.591 691.737V730.158M502.591 691.737H538.455M502.591 730.158V768.579M502.591 730.158H538.455M502.591 768.579V807M502.591 768.579H538.455M502.591 807H538.455M538.455 77V115.421M538.455 77H574.318M538.455 115.421V153.842M538.455 115.421H574.318M538.455 153.842V192.263M538.455 153.842H574.318M538.455 192.263V230.684M538.455 192.263H574.318M538.455 230.684V269.105M538.455 230.684H574.318M538.455 269.105V307.526M538.455 269.105H574.318M538.455 307.526V345.947M538.455 307.526H574.318M538.455 345.947V384.368M538.455 345.947H574.318M538.455 384.368V422.789M538.455 384.368H574.318M538.455 422.789V461.211M538.455 422.789H574.318M538.455 461.211V499.632M538.455 461.211H574.318M538.455 499.632V538.053M538.455 499.632H574.318M538.455 538.053V576.474M538.455 538.053H574.318M538.455 576.474V614.895M538.455 576.474H574.318M538.455 614.895V653.316M538.455 614.895H574.318M538.455 653.316V691.737M538.455 653.316H574.318M538.455 691.737V730.158M538.455 691.737H574.318M538.455 730.158V768.579M538.455 730.158H574.318M538.455 768.579V807M538.455 768.579H574.318M538.455 807H574.318M574.318 77V115.421M574.318 77H610.182M574.318 115.421V153.842M574.318 115.421H610.182M574.318 153.842V192.263M574.318 153.842H610.182M574.318 192.263V230.684M574.318 192.263H610.182M574.318 230.684V269.105M574.318 230.684H610.182M574.318 269.105V307.526M574.318 269.105H610.182M574.318 307.526V345.947M574.318 307.526H610.182M574.318 345.947V384.368M574.318 345.947H610.182M574.318 384.368V422.789M574.318 384.368H610.182M574.318 422.789V461.211M574.318 422.789H610.182M574.318 461.211V499.632M574.318 461.211H610.182M574.318 499.632V538.053M574.318 499.632H610.182M574.318 538.053V576.474M574.318 538.053H610.182M574.318 576.474V614.895M574.318 576.474H610.182M574.318 614.895V653.316M574.318 614.895H610.182M574.318 653.316V691.737M574.318 653.316H610.182M574.318 691.737V730.158M574.318 691.737H610.182M574.318 730.158V768.579M574.318 730.158H610.182M574.318 768.579V807M574.318 768.579H610.182M574.318 807H610.182M610.182 77V115.421M610.182 77H646.045M610.182 115.421V153.842M610.182 115.421H646.045M610.182 153.842V192.263M610.182 153.842H646.045M610.182 192.263V230.684M610.182 192.263H646.045M610.182 230.684V269.105M610.182 230.684H646.045M610.182 269.105V307.526M610.182 269.105H646.045M610.182 307.526V345.947M610.182 307.526H646.045M610.182 345.947V384.368M610.182 345.947H646.045M610.182 384.368V422.789M610.182 384.368H646.045M610.182 422.789V461.211M610.182 422.789H646.045M610.182 461.211V499.632M610.182 461.211H646.045M610.182 499.632V538.053M610.182 499.632H646.045M610.182 538.053V576.474M610.182 538.053H646.045M610.182 576.474V614.895M610.182 576.474H646.045M610.182 614.895V653.316M610.182 614.895H646.045M610.182 653.316V691.737M610.182 653.316H646.045M610.182 691.737V730.158M610.182 691.737H646.045M610.182 730.158V768.579M610.182 730.158H646.045M610.182 768.579V807M610.182 768.579H646.045M610.182 807H646.045M646.045 77V115.421M646.045 77H681.909M646.045 115.421V153.842M646.045 115.421H681.909M646.045 153.842V192.263M646.045 153.842H681.909M646.045 192.263V230.684M646.045 192.263H681.909M646.045 230.684V269.105M646.045 230.684H681.909M646.045 269.105V307.526M646.045 269.105H681.909M646.045 307.526V345.947M646.045 307.526H681.909M646.045 345.947V384.368M646.045 345.947H681.909M646.045 384.368V422.789M646.045 384.368H681.909M646.045 422.789V461.211M646.045 422.789H681.909M646.045 461.211V499.632M646.045 461.211H681.909M646.045 499.632V538.053M646.045 499.632H681.909M646.045 538.053V576.474M646.045 538.053H681.909M646.045 576.474V614.895M646.045 576.474H681.909M646.045 614.895V653.316M646.045 614.895H681.909M646.045 653.316V691.737M646.045 653.316H681.909M646.045 691.737V730.158M646.045 691.737H681.909M646.045 730.158V768.579M646.045 730.158H681.909M646.045 768.579V807M646.045 768.579H681.909M646.045 807H681.909M681.909 77V115.421M681.909 77H717.773M681.909 115.421V153.842M681.909 115.421H717.773M681.909 153.842V192.263M681.909 153.842H717.773M681.909 192.263V230.684M681.909 192.263H717.773M681.909 230.684V269.105M681.909 230.684H717.773M681.909 269.105V307.526M681.909 269.105H717.773M681.909 307.526V345.947M681.909 307.526H717.773M681.909 345.947V384.368M681.909 345.947H717.773M681.909 384.368V422.789M681.909 384.368H717.773M681.909 422.789V461.211M681.909 422.789H717.773M681.909 461.211V499.632M681.909 461.211H717.773M681.909 499.632V538.053M681.909 499.632H717.773M681.909 538.053V576.474M681.909 538.053H717.773M681.909 576.474V614.895M681.909 576.474H717.773M681.909 614.895V653.316M681.909 614.895H717.773M681.909 653.316V691.737M681.909 653.316H717.773M681.909 691.737V730.158M681.909 691.737H717.773M681.909 730.158V768.579M681.909 730.158H717.773M681.909 768.579V807M681.909 768.579H717.773M681.909 807H717.773M717.773 77V115.421M717.773 77H753.636M717.773 115.421V153.842M717.773 115.421H753.636M717.773 153.842V192.263M717.773 153.842H753.636M717.773 192.263V230.684M717.773 192.263H753.636M717.773 230.684V269.105M717.773 230.684H753.636M717.773 269.105V307.526M717.773 269.105H753.636M717.773 307.526V345.947M717.773 307.526H753.636M717.773 345.947V384.368M717.773 345.947H753.636M717.773 384.368V422.789M717.773 384.368H753.636M717.773 422.789V461.211M717.773 422.789H753.636M717.773 461.211V499.632M717.773 461.211H753.636M717.773 499.632V538.053M717.773 499.632H753.636M717.773 538.053V576.474M717.773 538.053H753.636M717.773 576.474V614.895M717.773 576.474H753.636M717.773 614.895V653.316M717.773 614.895H753.636M717.773 653.316V691.737M717.773 653.316H753.636M717.773 691.737V730.158M717.773 691.737H753.636M717.773 730.158V768.579M717.773 730.158H753.636M717.773 768.579V807M717.773 768.579H753.636M717.773 807H753.636M753.636 77V115.421M753.636 77H789.5M753.636 115.421V153.842M753.636 115.421H789.5M753.636 153.842V192.263M753.636 153.842H789.5M753.636 192.263V230.684M753.636 192.263H789.5M753.636 230.684V269.105M753.636 230.684H789.5M753.636 269.105V307.526M753.636 269.105H789.5M753.636 307.526V345.947M753.636 307.526H789.5M753.636 345.947V384.368M753.636 345.947H789.5M753.636 384.368V422.789M753.636 384.368H789.5M753.636 422.789V461.211M753.636 422.789H789.5M753.636 461.211V499.632M753.636 461.211H789.5M753.636 499.632V538.053M753.636 499.632H789.5M753.636 538.053V576.474M753.636 538.053H789.5M753.636 576.474V614.895M753.636 576.474H789.5M753.636 614.895V653.316M753.636 614.895H789.5M753.636 653.316V691.737M753.636 653.316H789.5M753.636 691.737V730.158M753.636 691.737H789.5M753.636 730.158V768.579M753.636 730.158H789.5M753.636 768.579V807M753.636 768.579H789.5M753.636 807H789.5M789.5 77V115.421M789.5 77H825.364M789.5 115.421V153.842M789.5 115.421H825.364M789.5 153.842V192.263M789.5 153.842H825.364M789.5 192.263V230.684M789.5 192.263H825.364M789.5 230.684V269.105M789.5 230.684H825.364M789.5 269.105V307.526M789.5 269.105H825.364M789.5 307.526V345.947M789.5 307.526H825.364M789.5 345.947V384.368M789.5 345.947H825.364M789.5 384.368V422.789M789.5 384.368H825.364M789.5 422.789V461.211M789.5 422.789H825.364M789.5 461.211V499.632M789.5 461.211H825.364M789.5 499.632V538.053M789.5 499.632H825.364M789.5 538.053V576.474M789.5 538.053H825.364M789.5 576.474V614.895M789.5 576.474H825.364M789.5 614.895V653.316M789.5 614.895H825.364M789.5 653.316V691.737M789.5 653.316H825.364M789.5 691.737V730.158M789.5 691.737H825.364M789.5 730.158V768.579M789.5 730.158H825.364M789.5 768.579V807M789.5 768.579H825.364M789.5 807H825.364M825.364 77V115.421M825.364 77H861.227M825.364 115.421V153.842M825.364 115.421H861.227M825.364 153.842V192.263M825.364 153.842H861.227M825.364 192.263V230.684M825.364 192.263H861.227M825.364 230.684V269.105M825.364 230.684H861.227M825.364 269.105V307.526M825.364 269.105H861.227M825.364 307.526V345.947M825.364 307.526H861.227M825.364 345.947V384.368M825.364 345.947H861.227M825.364 384.368V422.789M825.364 384.368H861.227M825.364 422.789V461.211M825.364 422.789H861.227M825.364 461.211V499.632M825.364 461.211H861.227M825.364 499.632V538.053M825.364 499.632H861.227M825.364 538.053V576.474M825.364 538.053H861.227M825.364 576.474V614.895M825.364 576.474H861.227M825.364 614.895V653.316M825.364 614.895H861.227M825.364 653.316V691.737M825.364 653.316H861.227M825.364 691.737V730.158M825.364 691.737H861.227M825.364 730.158V768.579M825.364 730.158H861.227M825.364 768.579V807M825.364 768.579H861.227M825.364 807H861.227M861.227 77V115.421M861.227 77H897.091M861.227 115.421V153.842M861.227 115.421H897.091M861.227 153.842V192.263M861.227 153.842H897.091M861.227 192.263V230.684M861.227 192.263H897.091M861.227 230.684V269.105M861.227 230.684H897.091M861.227 269.105V307.526M861.227 269.105H897.091M861.227 307.526V345.947M861.227 307.526H897.091M861.227 345.947V384.368M861.227 345.947H897.091M861.227 384.368V422.789M861.227 384.368H897.091M861.227 422.789V461.211M861.227 422.789H897.091M861.227 461.211V499.632M861.227 461.211H897.091M861.227 499.632V538.053M861.227 499.632H897.091M861.227 538.053V576.474M861.227 538.053H897.091M861.227 576.474V614.895M861.227 576.474H897.091M861.227 614.895V653.316M861.227 614.895H897.091M861.227 653.316V691.737M861.227 653.316H897.091M861.227 691.737V730.158M861.227 691.737H897.091M861.227 730.158V768.579M861.227 730.158H897.091M861.227 768.579V807M861.227 768.579H897.091M861.227 807H897.091M897.091 77V115.421M897.091 77H932.955M897.091 115.421V153.842M897.091 115.421H932.955M897.091 153.842V192.263M897.091 153.842H932.955M897.091 192.263V230.684M897.091 192.263H932.955M897.091 230.684V269.105M897.091 230.684H932.955M897.091 269.105V307.526M897.091 269.105H932.955M897.091 307.526V345.947M897.091 307.526H932.955M897.091 345.947V384.368M897.091 345.947H932.955M897.091 384.368V422.789M897.091 384.368H932.955M897.091 422.789V461.211M897.091 422.789H932.955M897.091 461.211V499.632M897.091 461.211H932.955M897.091 499.632V538.053M897.091 499.632H932.955M897.091 538.053V576.474M897.091 538.053H932.955M897.091 576.474V614.895M897.091 576.474H932.955M897.091 614.895V653.316M897.091 614.895H932.955M897.091 653.316V691.737M897.091 653.316H932.955M897.091 691.737V730.158M897.091 691.737H932.955M897.091 730.158V768.579M897.091 730.158H932.955M897.091 768.579V807M897.091 768.579H932.955M897.091 807H932.955M932.955 77V115.421M932.955 77H968.818M932.955 115.421V153.842M932.955 115.421H968.818M932.955 153.842V192.263M932.955 153.842H968.818M932.955 192.263V230.684M932.955 192.263H968.818M932.955 230.684V269.105M932.955 230.684H968.818M932.955 269.105V307.526M932.955 269.105H968.818M932.955 307.526V345.947M932.955 307.526H968.818M932.955 345.947V384.368M932.955 345.947H968.818M932.955 384.368V422.789M932.955 384.368H968.818M932.955 422.789V461.211M932.955 422.789H968.818M932.955 461.211V499.632M932.955 461.211H968.818M932.955 499.632V538.053M932.955 499.632H968.818M932.955 538.053V576.474M932.955 538.053H968.818M932.955 576.474V614.895M932.955 576.474H968.818M932.955 614.895V653.316M932.955 614.895H968.818M932.955 653.316V691.737M932.955 653.316H968.818M932.955 691.737V730.158M932.955 691.737H968.818M932.955 730.158V768.579M932.955 730.158H968.818M932.955 768.579V807M932.955 768.579H968.818M932.955 807H968.818M968.818 77V115.421M968.818 77H1004.68M968.818 115.421V153.842M968.818 115.421H1004.68M968.818 153.842V192.263M968.818 153.842H1004.68M968.818 192.263V230.684M968.818 192.263H1004.68M968.818 230.684V269.105M968.818 230.684H1004.68M968.818 269.105V307.526M968.818 269.105H1004.68M968.818 307.526V345.947M968.818 307.526H1004.68M968.818 345.947V384.368M968.818 345.947H1004.68M968.818 384.368V422.789M968.818 384.368H1004.68M968.818 422.789V461.211M968.818 422.789H1004.68M968.818 461.211V499.632M968.818 461.211H1004.68M968.818 499.632V538.053M968.818 499.632H1004.68M968.818 538.053V576.474M968.818 538.053H1004.68M968.818 576.474V614.895M968.818 576.474H1004.68M968.818 614.895V653.316M968.818 614.895H1004.68M968.818 653.316V691.737M968.818 653.316H1004.68M968.818 691.737V730.158M968.818 691.737H1004.68M968.818 730.158V768.579M968.818 730.158H1004.68M968.818 768.579V807M968.818 768.579H1004.68M968.818 807H1004.68M1004.68 77V115.421M1004.68 77H1040.55M1004.68 115.421V153.842M1004.68 115.421H1040.55M1004.68 153.842V192.263M1004.68 153.842H1040.55M1004.68 192.263V230.684M1004.68 192.263H1040.55M1004.68 230.684V269.105M1004.68 230.684H1040.55M1004.68 269.105V307.526M1004.68 269.105H1040.55M1004.68 307.526V345.947M1004.68 307.526H1040.55M1004.68 345.947V384.368M1004.68 345.947H1040.55M1004.68 384.368V422.789M1004.68 384.368H1040.55M1004.68 422.789V461.211M1004.68 422.789H1040.55M1004.68 461.211V499.632M1004.68 461.211H1040.55M1004.68 499.632V538.053M1004.68 499.632H1040.55M1004.68 538.053V576.474M1004.68 538.053H1040.55M1004.68 576.474V614.895M1004.68 576.474H1040.55M1004.68 614.895V653.316M1004.68 614.895H1040.55M1004.68 653.316V691.737M1004.68 653.316H1040.55M1004.68 691.737V730.158M1004.68 691.737H1040.55M1004.68 730.158V768.579M1004.68 730.158H1040.55M1004.68 768.579V807M1004.68 768.579H1040.55M1004.68 807H1040.55M1040.55 77V115.421M1040.55 77H1076.41M1040.55 115.421V153.842M1040.55 115.421H1076.41M1040.55 153.842V192.263M1040.55 153.842H1076.41M1040.55 192.263V230.684M1040.55 192.263H1076.41M1040.55 230.684V269.105M1040.55 230.684H1076.41M1040.55 269.105V307.526M1040.55 269.105H1076.41M1040.55 307.526V345.947M1040.55 307.526H1076.41M1040.55 345.947V384.368M1040.55 345.947H1076.41M1040.55 384.368V422.789M1040.55 384.368H1076.41M1040.55 422.789V461.211M1040.55 422.789H1076.41M1040.55 461.211V499.632M1040.55 461.211H1076.41M1040.55 499.632V538.053M1040.55 499.632H1076.41M1040.55 538.053V576.474M1040.55 538.053H1076.41M1040.55 576.474V614.895M1040.55 576.474H1076.41M1040.55 614.895V653.316M1040.55 614.895H1076.41M1040.55 653.316V691.737M1040.55 653.316H1076.41M1040.55 691.737V730.158M1040.55 691.737H1076.41M1040.55 730.158V768.579M1040.55 730.158H1076.41M1040.55 768.579V807M1040.55 768.579H1076.41M1040.55 807H1076.41M1076.41 77V115.421M1076.41 77H1112.27M1076.41 115.421V153.842M1076.41 115.421H1112.27M1076.41 153.842V192.263M1076.41 153.842H1112.27M1076.41 192.263V230.684M1076.41 192.263H1112.27M1076.41 230.684V269.105M1076.41 230.684H1112.27M1076.41 269.105V307.526M1076.41 269.105H1112.27M1076.41 307.526V345.947M1076.41 307.526H1112.27M1076.41 345.947V384.368M1076.41 345.947H1112.27M1076.41 384.368V422.789M1076.41 384.368H1112.27M1076.41 422.789V461.211M1076.41 422.789H1112.27M1076.41 461.211V499.632M1076.41 461.211H1112.27M1076.41 499.632V538.053M1076.41 499.632H1112.27M1076.41 538.053V576.474M1076.41 538.053H1112.27M1076.41 576.474V614.895M1076.41 576.474H1112.27M1076.41 614.895V653.316M1076.41 614.895H1112.27M1076.41 653.316V691.737M1076.41 653.316H1112.27M1076.41 691.737V730.158M1076.41 691.737H1112.27M1076.41 730.158V768.579M1076.41 730.158H1112.27M1076.41 768.579V807M1076.41 768.579H1112.27M1076.41 807H1112.27M1112.27 77V115.421M1112.27 77H1148.14V115.421M1112.27 115.421V153.842M1112.27 115.421H1148.14M1112.27 153.842V192.263M1112.27 153.842H1148.14M1112.27 192.263V230.684M1112.27 192.263H1148.14M1112.27 230.684V269.105M1112.27 230.684H1148.14M1112.27 269.105V307.526M1112.27 269.105H1148.14M1112.27 307.526V345.947M1112.27 307.526H1148.14M1112.27 345.947V384.368M1112.27 345.947H1148.14M1112.27 384.368V422.789M1112.27 384.368H1148.14M1112.27 422.789V461.211M1112.27 422.789H1148.14M1112.27 461.211V499.632M1112.27 461.211H1148.14M1112.27 499.632V538.053M1112.27 499.632H1148.14M1112.27 538.053V576.474M1112.27 538.053H1148.14M1112.27 576.474V614.895M1112.27 576.474H1148.14M1112.27 614.895V653.316M1112.27 614.895H1148.14M1112.27 653.316V691.737M1112.27 653.316H1148.14M1112.27 691.737V730.158M1112.27 691.737H1148.14M1112.27 730.158V768.579M1112.27 730.158H1148.14M1112.27 768.579V807M1112.27 768.579H1148.14M1112.27 807H1148.14V768.579M1148.14 115.421V153.842M1148.14 153.842V192.263M1148.14 192.263V230.684M1148.14 230.684V269.105M1148.14 269.105V307.526M1148.14 307.526V345.947M1148.14 345.947V384.368M1148.14 384.368V422.789M1148.14 422.789V461.211M1148.14 461.211V499.632M1148.14 499.632V538.053M1148.14 538.053V576.474M1148.14 576.474V614.895M1148.14 614.895V653.316M1148.14 653.316V691.737M1148.14 691.737V730.158M1148.14 730.158V768.579" stroke="url(#paint2_radial_57_1167)"/>
</g>
<defs>
<filter id="filter0_f_57_1167" x="477.5" y="-1" width="362" height="363" filterUnits="userSpaceOnUse" color-interpolation-filters="sRGB">
<feFlood flood-opacity="0" result="BackgroundImageFix"/>
<feBlend mode="normal" in="SourceGraphic" in2="BackgroundImageFix" result="shape"/>
<feGaussianBlur stdDeviation="50" result="effect1_foregroundBlur_57_1167"/>
</filter>
<filter id="filter1_f_57_1167" x="308.5" y="-31" width="436" height="437" filterUnits="userSpaceOnUse" color-interpolation-filters="sRGB">
<feFlood flood-opacity="0" result="BackgroundImageFix"/>
<feBlend mode="normal" in="SourceGraphic" in2="BackgroundImageFix" result="shape"/>
<feGaussianBlur stdDeviation="50" result="effect1_foregroundBlur_57_1167"/>
</filter>
<linearGradient id="paint0_linear_57_1167" x1="657.741" y1="296.664" x2="657.741" y2="165.98" gradientUnits="userSpaceOnUse">
<stop stop-color="white"/>
<stop offset="1" stop-color="#EBFF7F"/>
</linearGradient>
<linearGradient id="paint1_linear_57_1167" x1="525.394" y1="356.401" x2="525.394" y2="166.388" gradientUnits="userSpaceOnUse">
<stop stop-color="white"/>
<stop offset="1" stop-color="#21EA65"/>
</linearGradient>
<radialGradient id="paint2_radial_57_1167" cx="0" cy="0" r="1" gradientUnits="userSpaceOnUse" gradientTransform="translate(543.091 77) rotate(90) scale(270.5 472.175)">
<stop stop-color="white"/>
<stop offset="1" stop-color="white" stop-opacity="0"/>
</radialGradient>
</defs>
</svg>
