<svg width="266" height="284" viewBox="0 0 266 284" fill="none" xmlns="http://www.w3.org/2000/svg">
    <path
        d="M233 225.083C233 226.92 232.084 228.766 230.263 229.813L228.005 231.116L204.762 244.494L139.384 282.129C135.433 284.401 130.561 284.401 126.61 282.129L61.2334 244.483L38.0056 231.111L35.7369 229.803C33.9106 228.756 33 226.92 33 225.083C33 223.247 33.9106 221.4 35.7369 220.354L126.61 168.038C130.561 165.765 135.433 165.765 139.384 168.038L230.263 220.354C232.084 221.4 233 223.247 233 225.083Z"
        fill="black" fill-opacity="0.16" />
    <path
        d="M219.441 206.712C219.441 208.306 218.649 209.909 217.073 210.818L215.118 211.949L195 223.562L138.413 256.232C134.993 258.205 130.777 258.205 127.357 256.232L70.7702 223.553L50.6656 211.944L48.7019 210.809C47.1212 209.9 46.333 208.306 46.333 206.712C46.333 205.118 47.1212 203.515 48.7019 202.607L127.357 157.192C130.777 155.219 134.993 155.219 138.413 157.192L217.073 202.607C218.649 203.515 219.441 205.118 219.441 206.712Z"
        fill="#3E5053" stroke="black" stroke-width="1.2" stroke-linecap="round" stroke-linejoin="round" />
    <path
        d="M219.441 206.717V217.185C219.441 218.779 218.649 220.382 217.073 221.291L195 234.035L138.413 266.705C134.993 268.678 130.777 268.678 127.357 266.705L70.7702 234.03L48.7019 221.282C47.1212 220.373 46.333 218.779 46.333 217.185V206.717C46.333 208.311 47.1212 209.905 48.7019 210.813L50.6656 211.949L70.7702 223.557L127.357 256.236C130.777 258.209 134.993 258.209 138.413 256.236L195 223.566L215.118 211.953L217.073 210.822C218.649 209.914 219.441 208.311 219.441 206.717Z"
        fill="url(#paint0_linear_875_1758)" stroke="black" stroke-width="1.2" stroke-linecap="round"
        stroke-linejoin="round" />
    <path
        d="M201.114 134.017V206.717C201.114 207.972 200.491 209.232 199.249 209.949L137.243 245.746C134.549 247.3 131.223 247.3 128.529 245.746L66.5229 209.949C65.2761 209.232 64.6572 207.977 64.6572 206.717V134.017C64.6572 135.273 65.2806 136.533 66.5229 137.25L83.9202 147.296L128.524 173.055C131.218 174.61 134.544 174.61 137.238 173.055L181.842 147.305L199.24 137.259C200.486 136.542 201.105 135.278 201.105 134.022L201.114 134.017Z"
        fill="url(#paint1_linear_875_1758)" stroke="black" stroke-width="1.2" stroke-linecap="round"
        stroke-linejoin="round" />
    <path
        d="M192.809 162.378V191.695C192.809 194.638 191.015 198.058 188.806 199.336L147.293 223.306C145.084 224.579 143.294 223.226 143.294 220.282V190.965C143.294 188.021 145.084 184.597 147.293 183.324L187.154 160.307L188.806 159.354C191.015 158.076 192.809 159.43 192.809 162.378Z"
        fill="#00A757" stroke="black" stroke-width="1.2" stroke-linecap="round" stroke-linejoin="round" />
    <path
        d="M187.154 160.307V188.444C187.154 191.392 185.364 194.812 183.156 196.086L143.294 219.107V190.965C143.294 188.021 145.084 184.597 147.293 183.324L187.154 160.307Z"
        fill="#1ECA53" stroke="black" stroke-width="1.2" stroke-linecap="round" stroke-linejoin="round" />
    <path
        d="M201.114 134.017C201.114 135.273 200.491 136.538 199.248 137.255L181.851 147.3L137.247 173.051C134.553 174.605 131.227 174.605 128.533 173.051L83.929 147.291L66.5317 137.246C65.2849 136.529 64.666 135.273 64.666 134.013C64.666 132.753 65.2894 131.493 66.5317 130.776L128.537 94.9795C131.231 93.4255 134.558 93.4255 137.252 94.9795L199.257 130.776C200.504 131.493 201.123 132.757 201.123 134.013L201.114 134.017Z"
        fill="#6B8B8F" stroke="black" stroke-width="1.2" stroke-linecap="round" stroke-linejoin="round" />
    <path d="M0 0H266L181.515 134H84.4848L0 0Z" fill="url(#paint2_linear_875_1758)" />
    <path d="M59.1308 222.319L54.0234 219.371" stroke="black" stroke-width="1.2" stroke-linecap="round"
        stroke-linejoin="round" />
    <path d="M75.2943 231.657L64.2334 225.271" stroke="black" stroke-width="1.2" stroke-linecap="round"
        stroke-linejoin="round" />
    <path
        d="M90.7957 197.301V197.355C90.7823 200.235 89.7938 202.279 88.1907 203.29L87.9103 203.455C86.2226 204.354 83.9294 204.181 81.4046 202.72C76.2171 199.728 72.0137 192.443 72.0137 186.454C72.0137 183.564 72.9932 181.498 74.5918 180.478L74.9346 180.282C76.6089 179.41 78.871 179.579 81.3602 181.008C81.378 181.013 81.3913 181.026 81.4091 181.035C86.5966 184.027 90.8046 191.316 90.8046 197.306L90.7957 197.301Z"
        fill="#536A6D" stroke="black" stroke-width="1.2" stroke-linecap="round" stroke-linejoin="round" />
    <path
        d="M97.3464 193.552C97.3464 196.455 96.3578 198.521 94.7459 199.541L94.4476 199.71L88.1869 203.29C89.7899 202.279 90.7785 200.231 90.7918 197.355V197.301C90.7918 191.312 86.5883 184.023 81.3963 181.03C81.3785 181.022 81.3652 181.013 81.3474 181.004C78.8583 179.579 76.5961 179.405 74.9219 180.278L81.1337 176.729L81.4765 176.533C83.1597 175.651 85.4395 175.834 87.9464 177.281C93.134 180.278 97.3419 187.563 97.3419 193.552H97.3464Z"
        fill="#243133" stroke="black" stroke-width="1.2" stroke-linecap="round" stroke-linejoin="round" />
    <path
        d="M82.0099 198.303V198.334C82.001 200.106 81.3953 201.367 80.4068 201.99L80.2332 202.088C79.1957 202.64 77.7841 202.538 76.2256 201.638C73.0285 199.795 70.4414 195.306 70.4414 191.619C70.4414 189.838 71.0425 188.569 72.0265 187.937L72.2359 187.817C73.269 187.278 74.6582 187.385 76.1944 188.262C76.2033 188.262 76.2123 188.271 76.2256 188.28C79.4228 190.123 82.0099 194.612 82.0099 198.303Z"
        fill="#536A6D" stroke="black" stroke-width="1.2" stroke-linecap="round" stroke-linejoin="round" />
    <path
        d="M78.799 196.424V196.442C78.8302 197.274 78.5897 197.88 78.1756 198.187L78.1044 198.236C77.6635 198.517 77.0491 198.49 76.3544 198.094C74.9295 197.283 73.7183 195.226 73.6471 193.489C73.6115 192.652 73.8474 192.047 74.266 191.731L74.3551 191.668C74.7915 191.397 75.397 191.423 76.0828 191.806C76.0828 191.806 76.0917 191.806 76.0961 191.815C77.5211 192.626 78.7323 194.687 78.8035 196.419L78.799 196.424Z"
        fill="black" stroke="black" stroke-width="1.2" stroke-linecap="round" stroke-linejoin="round" />
    <path
        d="M86.0446 195.992C86.0446 197.778 85.4345 199.056 84.446 199.679L84.2634 199.781L80.4072 201.99C81.3957 201.367 82.0058 200.106 82.0103 198.334V198.303C82.0103 194.612 79.4187 190.123 76.226 188.28C76.2171 188.275 76.2082 188.266 76.1948 188.262C74.6631 187.385 73.2694 187.278 72.2363 187.817L76.0612 185.63L76.275 185.51C77.3125 184.967 78.7152 185.078 80.2603 185.973C83.4575 187.821 86.0446 192.305 86.0446 195.996V195.992Z"
        fill="#243133" stroke="black" stroke-width="1.2" stroke-linecap="round" stroke-linejoin="round" />
    <path
        d="M120.232 213.941V213.995C120.219 216.876 119.23 218.92 117.627 219.93L117.347 220.095C115.659 220.995 113.366 220.821 110.841 219.36C105.654 216.368 101.45 209.083 101.45 203.094C101.45 200.204 102.43 198.138 104.028 197.119L104.371 196.923C106.046 196.05 108.308 196.219 110.797 197.648C110.814 197.653 110.828 197.666 110.846 197.675C116.033 200.667 120.241 207.957 120.241 213.946L120.232 213.941Z"
        fill="#536A6D" stroke="black" stroke-width="1.2" stroke-linecap="round" stroke-linejoin="round" />
    <path
        d="M126.787 210.192C126.787 213.095 125.798 215.161 124.186 216.181L123.888 216.35L117.627 219.93C119.23 218.92 120.219 216.871 120.232 213.995V213.941C120.232 207.952 116.029 200.663 110.837 197.671C110.819 197.662 110.806 197.653 110.788 197.644C108.299 196.219 106.037 196.045 104.362 196.918L110.574 193.369L110.917 193.173C112.6 192.292 114.88 192.474 117.387 193.921C122.574 196.918 126.782 204.203 126.782 210.192H126.787Z"
        fill="#243133" stroke="black" stroke-width="1.2" stroke-linecap="round" stroke-linejoin="round" />
    <path
        d="M111.447 214.943V214.974C111.438 216.747 110.833 218.007 109.844 218.63L109.671 218.728C108.633 219.28 107.222 219.178 105.663 218.278C102.466 216.435 99.8789 211.947 99.8789 208.26C99.8789 206.478 100.48 205.209 101.464 204.577L101.673 204.457C102.706 203.918 104.096 204.025 105.632 204.902C105.641 204.902 105.65 204.911 105.663 204.92C108.86 206.763 111.447 211.252 111.447 214.943Z"
        fill="#536A6D" stroke="black" stroke-width="1.2" stroke-linecap="round" stroke-linejoin="round" />
    <path
        d="M108.241 213.064V213.082C108.273 213.915 108.032 214.52 107.618 214.827L107.547 214.876C107.106 215.157 106.491 215.13 105.797 214.734C104.372 213.924 103.161 211.866 103.089 210.13C103.054 209.293 103.29 208.687 103.708 208.371L103.798 208.309C104.234 208.037 104.84 208.064 105.525 208.447C105.525 208.447 105.534 208.447 105.539 208.455C106.963 209.266 108.175 211.328 108.246 213.06L108.241 213.064Z"
        fill="black" stroke="black" stroke-width="1.2" stroke-linecap="round" stroke-linejoin="round" />
    <path
        d="M115.486 212.632C115.486 214.418 114.876 215.696 113.887 216.319L113.705 216.422L109.849 218.63C110.837 218.007 111.447 216.747 111.452 214.974V214.943C111.452 211.252 108.86 206.763 105.667 204.92C105.659 204.915 105.65 204.907 105.636 204.902C104.105 204.025 102.711 203.918 101.678 204.457L105.503 202.27L105.716 202.15C106.754 201.607 108.157 201.718 109.702 202.613C112.899 204.461 115.486 208.945 115.486 212.637V212.632Z"
        fill="#243133" stroke="black" stroke-width="1.2" stroke-linecap="round" stroke-linejoin="round" />
    <path
        d="M108.397 175.536V175.593C108.38 177.241 107.547 178.194 106.336 178.194C105.837 178.194 105.271 178.029 104.675 177.686L82.3349 164.786C80.2777 163.602 78.6123 160.712 78.6123 158.339C78.6123 156.656 79.4495 155.68 80.674 155.68C81.1193 155.68 81.6181 155.814 82.1479 156.09C82.2103 156.117 82.2726 156.152 82.3349 156.188L104.675 169.088C106.732 170.272 108.397 173.162 108.397 175.536Z"
        fill="#00A757" stroke="black" stroke-width="1.2" stroke-linecap="round" stroke-linejoin="round" />
    <path
        d="M108.397 175.536V175.593C108.335 175.562 108.268 175.527 108.205 175.491L85.87 162.596C83.8128 161.407 82.1475 158.521 82.1475 156.144V156.09C82.2098 156.117 82.2721 156.152 82.3344 156.188L104.674 169.088C106.731 170.272 108.397 173.162 108.397 175.536Z"
        fill="#1ECA53" stroke="black" stroke-width="1.2" stroke-linecap="round" stroke-linejoin="round" />
    <path
        d="M119.939 182.202C119.939 182.482 119.917 182.74 119.868 182.981C119.65 184.179 118.897 184.855 117.882 184.855C117.379 184.855 116.813 184.695 116.217 184.348C114.16 183.163 112.494 180.274 112.494 177.9C112.494 176.217 113.331 175.242 114.556 175.242C114.636 175.242 114.721 175.246 114.805 175.255C115.237 175.3 115.718 175.46 116.217 175.749C117.245 176.346 118.176 177.361 118.848 178.528C119.525 179.695 119.939 181.013 119.939 182.202Z"
        fill="#00A757" stroke="black" stroke-width="1.2" stroke-linecap="round" stroke-linejoin="round" />
    <path
        d="M119.939 182.202C119.939 182.482 119.917 182.74 119.868 182.981C119.431 182.941 118.955 182.781 118.456 182.491C116.399 181.307 114.733 178.417 114.733 176.043C114.733 175.758 114.756 175.496 114.805 175.255C115.237 175.3 115.718 175.46 116.216 175.75C117.245 176.346 118.175 177.361 118.848 178.528C119.525 179.695 119.939 181.013 119.939 182.202Z"
        fill="#1ECA53" stroke="black" stroke-width="1.2" stroke-linecap="round" stroke-linejoin="round" />
    <path
        d="M185.729 120.726V120.971C185.698 122.217 185.062 123.433 183.828 124.141L180.315 126.172L137.447 150.92C134.624 152.55 131.151 152.55 128.319 150.92L85.4606 126.172L81.9473 124.141C80.6782 123.411 80.0459 122.133 80.0459 120.846C80.0459 119.559 80.6782 118.281 81.9473 117.551L128.319 90.7805C131.147 89.1463 134.624 89.1463 137.447 90.7805L183.828 117.551C185.062 118.259 185.698 119.483 185.729 120.721V120.726Z"
        fill="#719A9D" stroke="black" stroke-width="1.2" stroke-linecap="round" stroke-linejoin="round" />
    <path
        d="M183.763 120.717V120.953C183.733 122.153 183.119 123.324 181.931 124.005L178.548 125.96L137.261 149.79C134.542 151.359 131.197 151.359 128.47 149.79L87.1916 125.96L83.8078 124.005C82.5856 123.302 81.9766 122.072 81.9766 120.833C81.9766 119.593 82.5856 118.363 83.8078 117.66L128.47 91.8837C131.193 90.3102 134.542 90.3102 137.261 91.8837L181.931 117.66C183.119 118.342 183.733 119.521 183.763 120.713V120.717Z"
        fill="#6B8B8F" />
    <path
        d="M185.729 120.971V131.618C185.698 132.864 185.062 134.08 183.828 134.788L137.447 161.567C134.624 163.197 131.151 163.197 128.319 161.567L81.9473 134.788C80.6782 134.058 80.0459 132.78 80.0459 131.493V120.846C80.0459 122.133 80.6782 123.411 81.9473 124.141L85.4606 126.172L128.319 150.921C131.147 152.55 134.624 152.55 137.447 150.921L180.315 126.172L183.828 124.141C185.062 123.433 185.698 122.218 185.729 120.971Z"
        fill="url(#paint3_linear_875_1758)" stroke="#010101" stroke-width="1.2" stroke-linecap="round"
        stroke-linejoin="round" />
    <path d="M110.252 131.124L103.656 134.931V147.131" stroke="black" stroke-width="1.2" stroke-linecap="round"
        stroke-linejoin="round" />
    <path d="M155.836 130.757L162.435 134.567V146.763" stroke="black" stroke-width="1.2" stroke-linecap="round"
        stroke-linejoin="round" />
    <path d="M181.786 132.561V129.287" stroke="black" stroke-width="1.2" stroke-linecap="round"
        stroke-linejoin="round" />
    <path d="M178.916 134.218V130.944" stroke="black" stroke-width="1.2" stroke-linecap="round"
        stroke-linejoin="round" />
    <path d="M176.047 135.875V132.598" stroke="black" stroke-width="1.2" stroke-linecap="round"
        stroke-linejoin="round" />
    <path d="M84.916 132.561V129.287" stroke="black" stroke-width="1.2" stroke-linecap="round"
        stroke-linejoin="round" />
    <path d="M87.7852 134.218V130.944" stroke="black" stroke-width="1.2" stroke-linecap="round"
        stroke-linejoin="round" />
    <path d="M90.6562 135.875V132.598" stroke="black" stroke-width="1.2" stroke-linecap="round"
        stroke-linejoin="round" />
    <path d="M142.156 156.089L135.905 159.698C134.046 160.771 131.749 160.771 129.89 159.698L117.055 152.286"
        stroke="black" stroke-width="1.2" stroke-linecap="round" stroke-linejoin="round" />
    <path d="M147.785 152.841L145.323 154.263" stroke="black" stroke-width="1.2" stroke-linecap="round"
        stroke-linejoin="round" />
    <path d="M100.627 126.598L106.44 123.241" stroke="black" stroke-width="1.2" stroke-linecap="round"
        stroke-linejoin="round" />
    <path d="M122.444 139.188L128.25 135.831" stroke="black" stroke-width="1.2" stroke-linecap="round"
        stroke-linejoin="round" />
    <path d="M118.079 136.669L123.885 133.319" stroke="black" stroke-width="1.2" stroke-linecap="round"
        stroke-linejoin="round" />
    <path d="M113.715 134.149L119.527 130.799" stroke="black" stroke-width="1.2" stroke-linecap="round"
        stroke-linejoin="round" />
    <path d="M109.356 131.63L115.162 128.28" stroke="black" stroke-width="1.2" stroke-linecap="round"
        stroke-linejoin="round" />
    <path d="M104.992 129.11L110.798 125.76" stroke="black" stroke-width="1.2" stroke-linecap="round"
        stroke-linejoin="round" />
    <path d="M162.607 126.598L156.802 123.241" stroke="black" stroke-width="1.2" stroke-linecap="round"
        stroke-linejoin="round" />
    <path d="M140.798 139.188L134.992 135.831" stroke="black" stroke-width="1.2" stroke-linecap="round"
        stroke-linejoin="round" />
    <path d="M145.162 136.669L139.35 133.319" stroke="black" stroke-width="1.2" stroke-linecap="round"
        stroke-linejoin="round" />
    <path d="M149.521 134.149L143.715 130.799" stroke="black" stroke-width="1.2" stroke-linecap="round"
        stroke-linejoin="round" />
    <path d="M153.885 131.63L148.079 128.28" stroke="black" stroke-width="1.2" stroke-linecap="round"
        stroke-linejoin="round" />
    <path d="M158.25 129.11L152.438 125.76" stroke="black" stroke-width="1.2" stroke-linecap="round"
        stroke-linejoin="round" />
    <path d="M100.627 114.838L106.44 118.188" stroke="black" stroke-width="1.2" stroke-linecap="round"
        stroke-linejoin="round" />
    <path d="M122.444 102.24L128.25 105.597" stroke="black" stroke-width="1.2" stroke-linecap="round"
        stroke-linejoin="round" />
    <path d="M118.079 104.759L123.885 108.116" stroke="black" stroke-width="1.2" stroke-linecap="round"
        stroke-linejoin="round" />
    <path d="M113.715 107.279L119.527 110.636" stroke="black" stroke-width="1.2" stroke-linecap="round"
        stroke-linejoin="round" />
    <path d="M109.356 109.799L115.162 113.148" stroke="black" stroke-width="1.2" stroke-linecap="round"
        stroke-linejoin="round" />
    <path d="M104.992 112.318L110.798 115.668" stroke="black" stroke-width="1.2" stroke-linecap="round"
        stroke-linejoin="round" />
    <path d="M162.607 114.838L156.802 118.188" stroke="black" stroke-width="1.2" stroke-linecap="round"
        stroke-linejoin="round" />
    <path d="M140.798 102.24L134.992 105.597" stroke="black" stroke-width="1.2" stroke-linecap="round"
        stroke-linejoin="round" />
    <path d="M145.162 104.759L139.35 108.116" stroke="black" stroke-width="1.2" stroke-linecap="round"
        stroke-linejoin="round" />
    <path d="M149.521 107.279L143.715 110.636" stroke="black" stroke-width="1.2" stroke-linecap="round"
        stroke-linejoin="round" />
    <path d="M153.885 109.799L148.079 113.148" stroke="black" stroke-width="1.2" stroke-linecap="round"
        stroke-linejoin="round" />
    <path d="M158.25 112.318L152.438 115.668" stroke="black" stroke-width="1.2" stroke-linecap="round"
        stroke-linejoin="round" />
    <path
        d="M161.458 122.347L154.106 126.591L134.454 137.939C132.701 138.947 130.543 138.947 128.79 137.939L109.138 126.591L101.785 122.347C100.529 121.623 100.529 119.806 101.785 119.082L128.79 103.489C130.543 102.482 132.701 102.482 134.454 103.489L161.458 119.082C162.715 119.813 162.715 121.63 161.458 122.347Z"
        fill="#1ECA53" stroke="black" stroke-width="1.2" stroke-linecap="round" stroke-linejoin="round" />
    <path
        d="M154.105 126.598L134.453 137.946C132.7 138.954 130.542 138.954 128.789 137.946L109.137 126.598L128.789 115.25C130.542 114.242 132.7 114.242 134.453 115.25L154.105 126.598Z"
        fill="#00A757" stroke="black" stroke-width="1.2" stroke-miterlimit="10" />
    <path
        d="M131.616 94.9902C132.163 94.9902 132.684 95.1123 133.059 95.3281C133.437 95.5457 133.511 95.7606 133.511 95.8711C133.511 95.9817 133.436 96.1958 133.059 96.4131L133.058 96.4141C132.687 96.629 132.169 96.751 131.622 96.751C131.076 96.751 130.555 96.629 130.18 96.4131C129.802 96.1958 129.728 95.9817 129.728 95.8711C129.728 95.7606 129.802 95.5457 130.18 95.3281L130.181 95.3271C130.551 95.1122 131.07 94.9903 131.616 94.9902Z"
        fill="#00A757" stroke="black" />
    <path
        d="M131.616 144.678C132.163 144.678 132.684 144.8 133.059 145.016C133.437 145.233 133.511 145.448 133.511 145.559C133.511 145.669 133.436 145.883 133.059 146.101L133.058 146.102C132.687 146.317 132.169 146.439 131.622 146.439C131.076 146.439 130.555 146.317 130.18 146.101C129.802 145.883 129.728 145.669 129.728 145.559C129.728 145.448 129.802 145.233 130.18 145.016L130.181 145.015C130.551 144.8 131.07 144.678 131.616 144.678Z"
        fill="#00A757" stroke="black" />
    <path
        d="M174.755 119.838C175.301 119.838 175.822 119.96 176.197 120.175C176.575 120.393 176.649 120.608 176.649 120.718C176.649 120.829 176.575 121.043 176.197 121.26L176.196 121.261C175.826 121.476 175.307 121.598 174.761 121.598C174.214 121.598 173.693 121.476 173.318 121.26C172.941 121.043 172.866 120.829 172.866 120.718C172.866 120.608 172.94 120.393 173.318 120.175L173.319 120.174C173.69 119.96 174.208 119.838 174.755 119.838Z"
        fill="#00A757" stroke="black" />
    <path
        d="M88.4805 119.837C89.0269 119.837 89.548 119.959 89.9229 120.175C90.3006 120.393 90.375 120.608 90.375 120.718C90.3748 120.829 90.3 121.043 89.9229 121.26L89.9209 121.261C89.5503 121.476 89.0319 121.598 88.4854 121.598C87.9389 121.598 87.4179 121.476 87.043 121.26C86.6665 121.043 86.5935 120.83 86.5938 120.719C86.594 120.607 86.6702 120.392 87.0449 120.174C87.4155 119.959 87.9339 119.837 88.4805 119.837Z"
        fill="#00A757" stroke="black" />
    <path
        d="M180.128 158.381C180.128 159.187 180.373 159.766 180.778 160.051H180.783L180.952 160.153L183.232 161.462C182.942 161.262 182.733 160.91 182.639 160.438C182.595 160.242 182.577 160.024 182.577 159.788C182.577 158.221 183.534 156.395 184.71 155.709C184.781 155.665 184.848 155.634 184.919 155.602C185.333 155.42 185.716 155.406 186.028 155.558L183.655 154.186L183.619 154.169C183.254 153.982 182.782 154.013 182.265 154.307C181.09 154.988 180.132 156.809 180.132 158.385L180.128 158.381Z"
        fill="#536A6D" stroke="black" stroke-width="1.2" stroke-linecap="round" stroke-linejoin="round" />
    <path
        d="M182.577 159.783C182.577 160.015 182.595 160.238 182.639 160.433C182.733 160.905 182.942 161.257 183.231 161.458C183.245 161.471 183.258 161.484 183.276 161.489L183.383 161.551C183.748 161.729 184.206 161.689 184.71 161.4C185.894 160.714 186.843 158.888 186.843 157.321C186.843 156.515 186.589 155.932 186.188 155.647C186.184 155.642 186.175 155.633 186.161 155.629L186.023 155.553C185.716 155.402 185.333 155.415 184.914 155.598C184.843 155.629 184.776 155.66 184.705 155.705C183.53 156.39 182.572 158.216 182.572 159.783H182.577Z"
        fill="#536A6D" stroke="black" stroke-width="1.2" stroke-linecap="round" stroke-linejoin="round" />
    <path d="M147.774 135.273L142.435 138.356L137.096 135.273L142.435 132.19L147.774 135.273Z" fill="#39FF75"
        stroke="black" stroke-width="1.2" stroke-linecap="round" stroke-linejoin="round" />
    <path d="M147.774 135.273V141.435L142.435 144.518L137.096 141.435V135.273L142.435 138.356L147.774 135.273Z"
        fill="url(#paint4_linear_875_1758)" stroke="black" stroke-width="1.2" stroke-linecap="round"
        stroke-linejoin="round" />
    <path d="M159.533 128.493L154.194 131.576L148.854 128.493L154.194 125.41L159.533 128.493Z" fill="#39FF75"
        stroke="black" stroke-width="1.2" stroke-linecap="round" stroke-linejoin="round" />
    <path d="M159.533 128.493V134.656L154.194 137.739L148.854 134.656V128.493L154.194 131.576L159.533 128.493Z"
        fill="url(#paint5_linear_875_1758)" stroke="black" stroke-width="1.2" stroke-linecap="round"
        stroke-linejoin="round" />
    <path d="M171.288 125.021L165.952 128.104L160.609 125.021L165.952 121.938L171.288 125.021Z" fill="#39FF75"
        stroke="black" stroke-width="1.2" stroke-linecap="round" stroke-linejoin="round" />
    <path d="M171.288 125.021V127.876L165.952 130.959L160.609 127.876V125.021L165.952 128.104L171.288 125.021Z"
        fill="url(#paint6_linear_875_1758)" stroke="black" stroke-width="1.2" stroke-linecap="round"
        stroke-linejoin="round" />
    <path
        d="M171.298 163.412C171.298 164.218 171.543 164.797 171.948 165.082H171.952L172.122 165.185L174.401 166.494C174.112 166.293 173.903 165.942 173.809 165.47C173.765 165.274 173.747 165.056 173.747 164.82C173.747 163.252 174.704 161.426 175.88 160.741C175.951 160.696 176.018 160.665 176.089 160.634C176.503 160.451 176.886 160.438 177.198 160.589L174.824 159.218L174.789 159.2C174.424 159.013 173.952 159.044 173.435 159.338C172.26 160.019 171.302 161.841 171.302 163.417L171.298 163.412Z"
        fill="#536A6D" stroke="black" stroke-width="1.2" stroke-linecap="round" stroke-linejoin="round" />
    <path
        d="M173.747 164.82C173.747 165.051 173.764 165.274 173.809 165.47C173.902 165.942 174.112 166.293 174.401 166.494C174.415 166.507 174.428 166.521 174.446 166.525L174.553 166.587C174.918 166.765 175.376 166.725 175.88 166.436C177.064 165.75 178.012 163.925 178.012 162.357C178.012 161.551 177.759 160.968 177.358 160.683C177.353 160.678 177.345 160.67 177.331 160.665L177.193 160.589C176.886 160.438 176.503 160.451 176.084 160.634C176.013 160.665 175.946 160.696 175.875 160.741C174.7 161.427 173.742 163.252 173.742 164.82H173.747Z"
        fill="#536A6D" stroke="black" stroke-width="1.2" stroke-linecap="round" stroke-linejoin="round" />

    <defs>
        <linearGradient id="paint0_linear_875_1758" x1="219.441" y1="237.451" x2="46.333" y2="237.451"
            gradientUnits="userSpaceOnUse">
            <stop offset="0.4999" stop-color="#374749" />
            <stop offset="0.5" stop-color="#253133" />
        </linearGradient>
        <linearGradient id="paint1_linear_875_1758" x1="201.114" y1="174.893" x2="64.6572" y2="174.893"
            gradientUnits="userSpaceOnUse">
            <stop offset="0.4999" stop-color="#202A2B" />
            <stop offset="0.5" stop-color="#182326" />
        </linearGradient>
        <linearGradient id="paint2_linear_875_1758" x1="133" y1="-12.9533" x2="133" y2="192.513"
            gradientUnits="userSpaceOnUse">
            <stop offset="0.0961273" stop-color="#1ECA53" stop-opacity="0" />
            <stop offset="0.55" stop-color="#1ECA53" stop-opacity="0.5" />
            <stop offset="0.75" stop-color="#0F6429" stop-opacity="0" />
        </linearGradient>
        <linearGradient id="paint3_linear_875_1758" x1="185.729" y1="141.818" x2="80.0459" y2="141.818"
            gradientUnits="userSpaceOnUse">
            <stop offset="0.4999" stop-color="#374749" />
            <stop offset="0.5" stop-color="#253133" />
        </linearGradient>
        <linearGradient id="paint4_linear_875_1758" x1="147.774" y1="139.896" x2="137.096" y2="139.896"
            gradientUnits="userSpaceOnUse">
            <stop offset="0.4999" stop-color="#374749" />
            <stop offset="0.5" stop-color="#253133" />
        </linearGradient>
        <linearGradient id="paint5_linear_875_1758" x1="159.533" y1="133.116" x2="148.854" y2="133.116"
            gradientUnits="userSpaceOnUse">
            <stop offset="0.4999" stop-color="#374749" />
            <stop offset="0.5" stop-color="#253133" />
        </linearGradient>
        <linearGradient id="paint6_linear_875_1758" x1="171.288" y1="127.99" x2="160.609" y2="127.99"
            gradientUnits="userSpaceOnUse">
            <stop offset="0.4999" stop-color="#374749" />
            <stop offset="0.5" stop-color="#253133" />
        </linearGradient>
    </defs>
</svg>