<svg width="150" height="40" viewBox="0 0 150 40" fill="none" xmlns="http://www.w3.org/2000/svg">
<path d="M49.53 13.1984H61.9725V16.4384H53.6475V19.4534H61.1625V22.6709H53.6475V25.7309H62.1975V28.9709H49.53V13.1984ZM73.1731 22.4234C73.1731 21.7334 72.9856 21.1859 72.6106 20.7809C72.2356 20.3759 71.7331 20.1734 71.1031 20.1734C70.3531 20.1884 69.7606 20.4584 69.3256 20.9834C68.9056 21.4934 68.6956 22.1534 68.6956 22.9634H67.7506C67.7506 21.5834 67.9531 20.4284 68.3581 19.4984C68.7631 18.5534 69.3331 17.8409 70.0681 17.3609C70.8181 16.8809 71.7106 16.6409 72.7456 16.6409C73.6306 16.6409 74.4031 16.8359 75.0631 17.2259C75.7381 17.6009 76.2556 18.1409 76.6156 18.8459C76.9756 19.5359 77.1556 20.3534 77.1556 21.2984V28.9709H73.1731V22.4234ZM64.7131 16.8209H68.7181V28.9709H64.7131V16.8209ZM86.9617 13.1984C89.0617 13.1984 90.6817 13.6859 91.8217 14.6609C92.9617 15.6209 93.5317 16.9784 93.5317 18.7334C93.5317 20.5784 92.9617 22.0184 91.8217 23.0534C90.6817 24.0734 89.0617 24.5834 86.9617 24.5834H83.9917V28.9709H79.8742V13.1984H86.9617ZM86.9617 21.3434C87.8167 21.3434 88.4692 21.1334 88.9192 20.7134C89.3842 20.2934 89.6167 19.6709 89.6167 18.8459C89.6167 18.0509 89.3842 17.4509 88.9192 17.0459C88.4692 16.6409 87.8167 16.4384 86.9617 16.4384H83.9917V21.3434H86.9617ZM86.2417 23.0759H90.2467L94.0042 28.9709H89.3467L86.2417 23.0759ZM103.783 21.8384C103.798 21.3434 103.708 20.9234 103.513 20.5784C103.333 20.2184 103.071 19.9409 102.726 19.7459C102.381 19.5509 101.983 19.4534 101.533 19.4534C101.008 19.4534 100.558 19.5959 100.183 19.8809C99.8235 20.1509 99.5385 20.5334 99.3285 21.0284C99.1335 21.5084 99.036 22.0709 99.036 22.7159C99.036 23.4209 99.156 24.0284 99.396 24.5384C99.636 25.0484 99.9735 25.4459 100.408 25.7309C100.858 26.0009 101.376 26.1359 101.961 26.1359C103.041 26.1359 103.993 25.7234 104.818 24.8984L106.911 26.9684C106.296 27.6434 105.538 28.1684 104.638 28.5434C103.753 28.9184 102.741 29.1059 101.601 29.1059C100.281 29.1059 99.1335 28.8509 98.1585 28.3409C97.1985 27.8309 96.456 27.1109 95.931 26.1809C95.421 25.2509 95.166 24.1709 95.166 22.9409C95.166 21.6809 95.4285 20.5859 95.9535 19.6559C96.4785 18.7109 97.221 17.9834 98.181 17.4734C99.141 16.9484 100.251 16.6859 101.511 16.6859C102.936 16.6859 104.113 16.9859 105.043 17.5859C105.988 18.1709 106.678 19.0109 107.113 20.1059C107.563 21.2009 107.743 22.4834 107.653 23.9534H98.4735V21.8384H103.783ZM114.213 23.7959C113.643 23.7959 113.216 23.9009 112.931 24.1109C112.661 24.3059 112.526 24.6209 112.526 25.0559C112.526 25.4909 112.668 25.8359 112.953 26.0909C113.238 26.3309 113.643 26.4509 114.168 26.4509C114.573 26.4509 114.941 26.3834 115.271 26.2484C115.616 26.1134 115.901 25.9259 116.126 25.6859C116.366 25.4309 116.523 25.1459 116.598 24.8309L117.161 26.6084C116.831 27.4334 116.306 28.0634 115.586 28.4984C114.866 28.9334 113.981 29.1509 112.931 29.1509C112.061 29.1509 111.311 28.9859 110.681 28.6559C110.066 28.3259 109.593 27.8759 109.263 27.3059C108.933 26.7359 108.768 26.0834 108.768 25.3484C108.768 24.1934 109.166 23.2934 109.961 22.6484C110.771 22.0034 111.926 21.6734 113.426 21.6584H116.981V23.7959H114.213ZM116.598 21.5234C116.598 20.9384 116.403 20.4809 116.013 20.1509C115.623 19.8209 115.046 19.6559 114.281 19.6559C113.771 19.6559 113.201 19.7384 112.571 19.9034C111.941 20.0684 111.296 20.3159 110.636 20.6459L109.533 17.9909C110.178 17.7059 110.801 17.4659 111.401 17.2709C112.016 17.0609 112.638 16.9034 113.268 16.7984C113.898 16.6934 114.543 16.6409 115.203 16.6409C116.898 16.6409 118.203 17.0309 119.118 17.8109C120.048 18.5759 120.521 19.6559 120.536 21.0509V28.9709H116.598V21.5234ZM131.079 21.1859C130.809 20.7809 130.471 20.4734 130.066 20.2634C129.676 20.0384 129.219 19.9259 128.694 19.9259C128.214 19.9259 127.786 20.0534 127.411 20.3084C127.051 20.5484 126.766 20.8934 126.556 21.3434C126.361 21.7934 126.264 22.3184 126.264 22.9184C126.264 23.5184 126.361 24.0434 126.556 24.4934C126.766 24.9434 127.051 25.2959 127.411 25.5509C127.786 25.8059 128.214 25.9334 128.694 25.9334C129.234 25.9334 129.699 25.8209 130.089 25.5959C130.494 25.3709 130.824 25.0184 131.079 24.5384L134.026 26.2259C133.546 27.1409 132.826 27.8534 131.866 28.3634C130.906 28.8584 129.781 29.1059 128.491 29.1059C127.246 29.1059 126.151 28.8509 125.206 28.3409C124.261 27.8309 123.526 27.1109 123.001 26.1809C122.491 25.2509 122.236 24.1709 122.236 22.9409C122.236 21.6809 122.499 20.5859 123.024 19.6559C123.549 18.7109 124.284 17.9834 125.229 17.4734C126.174 16.9484 127.276 16.6859 128.536 16.6859C129.751 16.6859 130.831 16.9334 131.776 17.4284C132.721 17.9084 133.456 18.5984 133.981 19.4984L131.079 21.1859ZM144.433 22.4234C144.433 21.7334 144.246 21.1859 143.871 20.7809C143.496 20.3759 142.993 20.1734 142.363 20.1734C141.628 20.1884 141.043 20.4584 140.608 20.9834C140.188 21.4934 139.978 22.1534 139.978 22.9634H139.011C139.011 21.5834 139.213 20.4284 139.618 19.4984C140.023 18.5534 140.601 17.8409 141.351 17.3609C142.101 16.8809 142.986 16.6409 144.006 16.6409C144.906 16.6409 145.686 16.8359 146.346 17.2259C147.006 17.6009 147.516 18.1409 147.876 18.8459C148.251 19.5359 148.438 20.3534 148.438 21.2984V28.9709H144.433V22.4234ZM135.973 12.2759H139.978V28.9709H135.973V12.2759Z" fill="white"/>
<path fill-rule="evenodd" clip-rule="evenodd" d="M15.943 25.5328L1.44201 25.5328C1.44201 25.5328 0 24.5713 0 21.6867C0 18.8021 1.44201 17.8406 1.44201 17.8406L15.9344 17.8406L8.4415 4.86006C8.4415 4.86006 8.80496 3.08243 10.8151 1.88053C12.8252 0.678623 15.1019 1.01396 15.1019 1.01396L22.5964 13.9973L28.1545 4.3779C28.1545 4.3779 29.8015 3.4178 32.4452 4.86008C35.0889 6.30236 34.8141 8.22539 34.8141 8.22539L29.2638 17.8406L38.0387 17.8406C38.0387 17.8406 39 19.2115 39 21.6867C39 24.1619 38.0387 25.5328 38.0387 25.5328H29.2551L33.3301 32.5923C33.3301 32.5923 33.3301 34.1865 31.0032 35.6288C28.6763 37.0711 26.6698 36.4384 26.6698 36.4384L22.5991 29.3864L17.0531 38.9941C17.0531 38.9941 15.3576 39.3117 13.2184 38.0326C11.0792 36.7535 10.3927 35.148 10.3927 35.148L15.943 25.5328ZM25.0373 25.3639C27.0115 24.2239 27.6158 21.6228 26.2995 19.3425C24.9832 17.0622 22.4755 16.2957 20.4709 17.4532C18.4968 18.5932 17.9066 21.1487 19.2229 23.429C20.5391 25.7093 23.0631 26.5039 25.0373 25.3639Z" fill="white"/>
</svg>
