<svg width="120" height="120" viewBox="0 0 120 120" fill="none" xmlns="http://www.w3.org/2000/svg">
<g clip-path="url(#clip0_8447_6843)">
<mask id="mask0_8447_6843" style="mask-type:luminance" maskUnits="userSpaceOnUse" x="0" y="0" width="120" height="120">
<path fill-rule="evenodd" clip-rule="evenodd" d="M0 0H120V120H0V0Z" fill="white"/>
</mask>
<g mask="url(#mask0_8447_6843)">
<path fill-rule="evenodd" clip-rule="evenodd" d="M60 120C27 120 0 93 0 59.7C0.3 26.7 27 -0.299965 60.3 3.46659e-05C93.3 0.300035 120 27 120 60.6C119.7 93.3 93 120 60 120Z" fill="#0090FF"/>
</g>
<path fill-rule="evenodd" clip-rule="evenodd" d="M65.6992 52.8L63.8992 62.4L80.9992 64.8L79.7992 69.3L62.9992 66.9C61.7992 70.8 61.1992 75 59.6992 78.6C58.1992 82.8 56.6992 87 54.8992 90.9C52.4992 96 48.2992 99.6 42.5992 100.5C39.2992 101.1 35.6992 100.8 32.9992 98.7C32.0992 98.1 31.1992 96.9 31.1992 96C31.1992 94.8 31.7992 93.3 32.6992 92.7C33.2992 92.4 34.7992 92.7 35.6992 93C36.5992 93.9 37.4992 95.1 38.0992 96.3C39.8992 98.7 42.2992 99 44.6992 97.2C47.3992 94.8 48.8992 91.5 49.7992 88.2C51.5992 81 53.3992 74.1 54.8992 66.9V65.7L38.9992 63.3L39.5992 58.8L56.0992 61.2L58.1992 51.9L41.0992 49.2L41.6992 44.4L59.3992 46.8C59.9992 45 60.2992 43.5 60.8992 42C62.3992 36.6 63.8992 31.2 67.4992 26.4C71.0992 21.6 75.2992 18.6 81.5992 18.9C84.2992 18.9 86.9992 19.8 88.7992 21.9C89.0992 22.2 89.6992 22.8 89.6992 23.4C89.6992 24.6 89.6992 26.1 88.7992 27C87.5992 27.9 86.0992 27.6 84.8992 26.4C83.9992 25.5 83.3992 24.6 82.4992 23.7C80.6992 21.3 77.9992 21 75.8992 23.1C74.3992 24.6 72.8992 26.7 71.9992 28.8C69.8992 35.1 68.3992 41.7 66.2992 48.3L82.7992 50.7L81.5992 55.2L65.6992 52.8Z" fill="white"/>
</g>
<defs>
<clipPath id="clip0_8447_6843">
<rect width="120" height="120" fill="white"/>
</clipPath>
</defs>
</svg>
