<svg width="144" height="130" viewBox="0 0 144 130" fill="none" xmlns="http://www.w3.org/2000/svg">
    <g filter="url(#filter0_d_57_1167)">
        <g filter="url(#filter1_i_57_1167)">
            <path
                d="M75.901 76.8278C72.5515 82.3021 68.524 85.7301 64.356 87.1329C62.9443 87.6117 61.5143 87.8461 60.0931 87.8529L59.2843 87.8336C53.6458 87.5255 48.1372 83.577 44.0197 76.0137C35.6077 60.5366 36.2367 35.8141 45.4262 20.7953C49.9836 13.3469 55.7984 9.67937 61.5275 9.76319C63.1354 9.78669 64.7284 10.1087 66.2861 10.7169C70.3858 12.321 74.2361 15.9634 77.3077 21.6094C85.7239 37.0798 85.0947 61.8022 75.901 76.8278Z"
                fill="#FDD849" />
        </g>
        <path
            d="M75.901 76.8278C72.5515 82.3021 68.524 85.7301 64.356 87.1329C62.9443 87.6117 61.5143 87.8461 60.0931 87.8529L59.2843 87.8336C53.6458 87.5255 48.1372 83.577 44.0197 76.0137C35.6077 60.5366 36.2367 35.8141 45.4262 20.7953C49.9836 13.3469 55.7984 9.67937 61.5275 9.76319C63.1354 9.78669 64.7284 10.1087 66.2861 10.7169C70.3858 12.321 74.2361 15.9634 77.3077 21.6094C85.7239 37.0798 85.0947 61.8022 75.901 76.8278Z"
            stroke="black" stroke-width="1.2" stroke-linecap="round" stroke-linejoin="round" />
        <path
            d="M49.2648 27.8528C42.3872 39.0932 41.9132 57.5894 48.2109 69.1624C54.5086 80.7353 65.183 81.0107 72.0606 69.7703C78.9382 58.5299 79.4124 40.0338 73.1147 28.4609C66.8169 16.8879 56.1424 16.6124 49.2648 27.8528Z"
            fill="#FDA103" stroke="black" stroke-width="1.2" stroke-linecap="round" stroke-linejoin="round" />
        <path
            d="M85.2153 77.0541C80.7326 84.3804 75.0392 88.0477 69.4099 88.0902L68.6367 88.0739L60.0924 87.8525C61.5137 87.8458 62.9436 87.6113 64.3553 87.1325C68.5234 85.7298 72.5508 82.3018 75.9004 76.8274C85.094 61.8018 85.7232 37.0794 77.307 21.609C74.2354 15.963 70.3851 12.3206 66.2855 10.7165C64.7277 10.1083 63.1347 9.7863 61.5269 9.7628L70.6808 9.99361L71.0013 10.0032C76.7598 10.161 82.4212 14.1191 86.6219 21.8358C95.034 37.3129 94.4048 62.0353 85.2153 77.0541Z"
            fill="#FDA103" stroke="black" stroke-width="1.2" stroke-linecap="round" stroke-linejoin="round" />
        <path d="M79.6062 13.2642L70.3062 13.028" stroke="black" stroke-width="1.2" stroke-linecap="round"
            stroke-linejoin="round" />
        <path d="M84.6686 18.6734L75.3509 18.4356" stroke="black" stroke-width="1.2" stroke-linecap="round"
            stroke-linejoin="round" />
        <path d="M87.7251 24.0398L78.4007 23.7979" stroke="black" stroke-width="1.2" stroke-linecap="round"
            stroke-linejoin="round" />
        <path d="M89.7917 29.3787L80.4808 29.1451" stroke="black" stroke-width="1.2" stroke-linecap="round"
            stroke-linejoin="round" />
        <path d="M91.1989 34.6963L81.8812 34.4586" stroke="black" stroke-width="1.2" stroke-linecap="round"
            stroke-linejoin="round" />
        <path d="M92.066 39.9997L82.7552 39.7662" stroke="black" stroke-width="1.2" stroke-linecap="round"
            stroke-linejoin="round" />
        <path d="M92.483 45.2902L83.1722 45.0567" stroke="black" stroke-width="1.2" stroke-linecap="round"
            stroke-linejoin="round" />
        <path d="M92.4868 50.5874L83.1734 50.3429" stroke="black" stroke-width="1.2" stroke-linecap="round"
            stroke-linejoin="round" />
        <path d="M92.0669 55.8593L82.7535 55.6149" stroke="black" stroke-width="1.2" stroke-linecap="round"
            stroke-linejoin="round" />
        <path d="M91.0718 61.8142L81.7653 61.5738" stroke="black" stroke-width="1.2" stroke-linecap="round"
            stroke-linejoin="round" />
        <path d="M89.4556 67.7619L80.1449 67.5284" stroke="black" stroke-width="1.2" stroke-linecap="round"
            stroke-linejoin="round" />
        <path d="M87.0523 73.6848L77.7416 73.4512" stroke="black" stroke-width="1.2" stroke-linecap="round"
            stroke-linejoin="round" />
        <path d="M83.5134 79.5923L83.5066 79.5882L74.1957 79.3546" stroke="black" stroke-width="1.2"
            stroke-linecap="round" stroke-linejoin="round" />
        <path d="M80.0494 83.4689L70.7428 83.2287" stroke="black" stroke-width="1.2" stroke-linecap="round"
            stroke-linejoin="round" />
        <path
            d="M66.8862 59.7341C66.5459 61.7106 65.7149 63.0545 64.3927 63.7689C63.0695 64.4812 61.5196 64.4375 59.7411 63.6336L59.1578 67.0213C59.1457 67.1056 59.1197 67.1801 59.0815 67.2401C59.0431 67.3004 58.9934 67.3445 58.9355 67.3702C58.8758 67.3957 58.8094 67.4024 58.7402 67.3902C58.671 67.3779 58.6004 67.3466 58.5326 67.2982L56.3399 65.8469C56.2722 65.8031 56.2079 65.7429 56.1507 65.6701C56.0935 65.5969 56.0447 65.5125 56.0069 65.4218C55.9672 65.3341 55.9396 65.2407 55.9259 65.1477C55.9121 65.0551 55.9126 64.9645 55.9271 64.8826L56.5104 61.495C55.8258 60.9151 55.1673 60.2547 54.5448 59.5238C54.0179 58.9171 53.5165 58.2647 53.0456 57.5729C52.6773 57.02 52.3295 56.4438 52.0045 55.8481C51.7818 55.4489 51.5716 55.0393 51.3748 54.6211C51.2944 54.4455 51.2194 54.2669 51.1502 54.0859C51.013 53.6922 51.048 53.4207 51.2545 53.2691L53.3765 51.7618C53.4746 51.6818 53.6125 51.6877 53.7891 51.7773C53.9567 51.8592 54.0761 52.0027 54.1496 52.2092L54.1755 52.2698C55.1787 54.3577 56.354 56.0345 57.7036 57.3016C58.0855 57.6688 58.4773 57.9862 58.8769 58.2507C59.7542 58.8315 60.5733 59.0645 61.3341 58.9497C62.095 58.8349 62.5636 58.2689 62.7393 57.2482C62.8016 56.8867 62.7788 56.4915 62.6714 56.0597C62.575 55.6595 62.4393 55.2647 62.2684 54.8877C62.1059 54.5353 61.832 54.0834 61.4439 53.5333C61.1288 53.0812 60.807 52.6378 60.4788 52.2035C60.0876 51.699 59.691 51.2028 59.2893 50.7154C58.9031 50.2294 58.5978 49.8469 58.3742 49.57C58.0669 49.1848 57.7635 48.7933 57.4642 48.3958C57.15 47.987 56.8462 47.5628 56.5539 47.1248C56.2795 46.7011 56.0128 46.2689 55.7543 45.8288C55.4856 45.3846 55.2423 44.9167 55.028 44.4315C54.8311 43.9665 54.6499 43.4938 54.4853 43.0157C54.3095 42.522 54.1804 42.0152 54.102 41.5105C54.0289 40.9994 53.9888 40.4931 53.9822 39.9978C53.974 39.4407 54.0152 38.903 54.1049 38.3958C54.4116 36.6146 55.2108 35.4026 56.502 34.7627C57.7935 34.1214 59.323 34.1707 61.0883 34.9078L61.688 31.4248C61.7169 31.2571 61.7933 31.145 61.9182 31.0907C61.9762 31.063 62.0412 31.0537 62.1093 31.0634C62.1774 31.0731 62.2472 31.1015 62.3147 31.1471L64.5062 32.5978C64.6576 32.6981 64.7723 32.8385 64.8491 33.0181C64.927 33.1986 64.9501 33.3814 64.919 33.5621L64.3322 36.9699C64.9365 37.4553 65.5085 37.9999 66.0497 38.603C66.5909 39.2061 67.0233 39.7323 67.3502 40.1855C67.6745 40.6385 67.9778 41.1083 68.2549 41.5945C68.5345 42.0808 68.7119 42.4076 68.7921 42.5751C68.8711 42.7417 68.937 42.8868 68.9888 43.0081C69.133 43.3613 69.1175 43.6248 68.9439 43.7966L67.1416 45.7538C67.0921 45.8192 67.0265 45.8595 66.9516 45.8705C66.8767 45.8815 66.7952 45.8628 66.7155 45.8164C66.6355 45.7844 66.5568 45.7296 66.4849 45.6558C66.413 45.5821 66.3498 45.4912 66.2997 45.3897C66.2381 45.2582 66.1729 45.129 66.1041 45.0026C65.9306 44.6848 65.749 44.3738 65.5599 44.0705C65.2941 43.6368 65.0127 43.2197 64.7172 42.8217C64.3626 42.3527 63.987 41.9165 63.5945 41.518C63.1663 41.0723 62.7131 40.6889 62.2453 40.3767C61.2165 39.6957 60.3299 39.418 59.5854 39.5436C58.8409 39.6692 58.3923 40.1711 58.2415 41.0473C58.1835 41.3842 58.1768 41.7244 58.2189 42.068C58.263 42.4145 58.3754 42.7869 58.5593 43.1888C58.7431 43.5908 58.9207 43.9467 59.09 44.2521C59.2617 44.559 59.53 44.9605 59.8966 45.4545C60.2632 45.9484 60.5616 46.3409 60.7886 46.6281C61.0168 46.916 61.3651 47.343 61.8329 47.9121C62.3627 48.5511 62.7657 49.045 63.0432 49.393C63.3205 49.7424 63.6929 50.2403 64.1602 50.8879C64.6276 51.5355 64.9881 52.0801 65.2442 52.5219C65.499 52.9644 65.779 53.5089 66.084 54.157C66.3881 54.8028 66.6041 55.4032 66.7322 55.9551C66.8604 56.5071 66.9454 57.1142 66.9885 57.7757C67.0307 58.435 66.9972 59.0893 66.886 59.7356L66.8862 59.7341Z"
            fill="#B27100" />
    </g>
    <g filter="url(#filter2_d_57_1167)">
        <path
            d="M121.177 47.4902C119.233 48.9456 117.338 49.5869 115.676 49.4965C115.113 49.4672 114.578 49.3495 114.077 49.1529L113.796 49.0329C111.857 48.1354 110.473 45.9764 110.084 42.7416C109.294 36.1238 112.975 27.5218 118.308 23.5289C120.952 21.5486 123.51 21.0734 125.512 21.9048C126.074 22.1381 126.588 22.4743 127.051 22.9061C128.267 24.0438 129.111 25.863 129.4 28.2776C130.193 34.8935 126.512 43.4955 121.177 47.4902Z"
            fill="#FDD849" stroke="black" stroke-width="0.8" stroke-linecap="round" stroke-linejoin="round" />
        <path
            d="M118.669 26.5466C114.678 29.5349 111.922 35.9701 112.516 40.9195C113.11 45.869 116.823 47.4599 120.814 44.4715C124.805 41.4832 127.561 35.0481 126.967 30.0986C126.373 25.1491 122.66 23.5582 118.669 26.5466Z"
            fill="#FDA103" stroke="black" stroke-width="0.8" stroke-linecap="round" stroke-linejoin="round" />
        <path
            d="M124.42 48.8733C121.818 50.821 119.304 51.3132 117.319 50.5402L117.05 50.4262L114.077 49.1524C114.578 49.349 115.113 49.4667 115.676 49.496C117.338 49.5864 119.233 48.9452 121.177 47.4897C126.512 43.495 130.193 34.893 129.401 28.2771C129.111 25.8625 128.268 24.0433 127.051 22.9056C126.589 22.4738 126.074 22.1376 125.512 21.9043L128.697 23.2667L128.809 23.315C130.811 24.1764 132.247 26.3602 132.643 29.6606C133.434 36.2783 129.752 44.8803 124.42 48.8733Z"
            fill="#FDA103" stroke="black" stroke-width="0.8" stroke-linecap="round" stroke-linejoin="round" />
        <path d="M131.377 25.6654L128.141 24.2806" stroke="black" stroke-width="0.8" stroke-linecap="round"
            stroke-linejoin="round" />
        <path d="M132.399 28.2757L129.157 26.8879" stroke="black" stroke-width="0.8" stroke-linecap="round"
            stroke-linejoin="round" />
        <path d="M132.722 30.5896L129.478 29.1994" stroke="black" stroke-width="0.8" stroke-linecap="round"
            stroke-linejoin="round" />
        <path d="M132.701 32.7557L129.461 31.3703" stroke="black" stroke-width="0.8" stroke-linecap="round"
            stroke-linejoin="round" />
        <path d="M132.452 34.8216L129.21 33.4338" stroke="black" stroke-width="0.8" stroke-linecap="round"
            stroke-linejoin="round" />
        <path d="M132.014 36.8074L128.774 35.4221" stroke="black" stroke-width="0.8" stroke-linecap="round"
            stroke-linejoin="round" />
        <path d="M131.421 38.7254L128.18 37.34" stroke="black" stroke-width="0.8" stroke-linecap="round"
            stroke-linejoin="round" />
        <path d="M130.68 40.5877L127.441 39.1981" stroke="black" stroke-width="0.8" stroke-linecap="round"
            stroke-linejoin="round" />
        <path d="M129.794 42.3821L126.555 40.9925" stroke="black" stroke-width="0.8" stroke-linecap="round"
            stroke-linejoin="round" />
        <path d="M128.611 44.3362L125.373 42.9491" stroke="black" stroke-width="0.8" stroke-linecap="round"
            stroke-linejoin="round" />
        <path d="M127.211 46.2005L123.97 44.8151" stroke="black" stroke-width="0.8" stroke-linecap="round"
            stroke-linejoin="round" />
        <path d="M125.537 47.9461L122.297 46.5607" stroke="black" stroke-width="0.8" stroke-linecap="round"
            stroke-linejoin="round" />
        <path d="M123.465 49.5272L123.464 49.5248L120.223 48.1394" stroke="black" stroke-width="0.8"
            stroke-linecap="round" stroke-linejoin="round" />
        <path d="M121.706 50.4051L118.468 49.0179" stroke="black" stroke-width="0.8" stroke-linecap="round"
            stroke-linejoin="round" />
        <path
            d="M120.401 40.2196C120.005 40.8667 119.525 41.2228 118.96 41.2888C118.395 41.354 117.856 41.1216 117.344 40.5901L116.665 41.6993C116.648 41.7272 116.629 41.7498 116.607 41.7655C116.585 41.7813 116.562 41.7899 116.538 41.7908C116.513 41.7914 116.489 41.7845 116.466 41.7705C116.443 41.7565 116.423 41.7356 116.406 41.7091L115.838 40.892C115.821 40.8672 115.807 40.837 115.797 40.8034C115.787 40.7697 115.781 40.7332 115.781 40.696C115.779 40.6596 115.783 40.6229 115.791 40.5883C115.799 40.5538 115.812 40.5221 115.828 40.4953L116.507 39.3862C116.348 39.0865 116.209 38.7622 116.092 38.4182C115.992 38.1312 115.907 37.8317 115.839 37.5226C115.786 37.2767 115.745 37.0255 115.714 36.7706C115.692 36.5991 115.675 36.4257 115.664 36.2511C115.661 36.1782 115.659 36.1049 115.66 36.0316C115.667 35.874 115.718 35.7834 115.811 35.7591L116.768 35.5263C116.814 35.5119 116.862 35.5333 116.911 35.5895C116.959 35.6417 116.98 35.7089 116.977 35.7917L116.978 35.8167C117.038 36.691 117.217 37.4449 117.514 38.0792C117.597 38.2617 117.69 38.4281 117.793 38.5771C118.021 38.904 118.276 39.1005 118.559 39.1667C118.843 39.2328 119.087 39.0995 119.291 38.7653C119.364 38.647 119.411 38.5048 119.434 38.338C119.456 38.1839 119.464 38.0261 119.456 37.8697C119.448 37.723 119.415 37.5258 119.356 37.2782C119.309 37.0751 119.258 36.8742 119.203 36.6757C119.136 36.4435 119.066 36.2136 118.993 35.9861C118.925 35.7612 118.872 35.584 118.832 35.4554C118.778 35.277 118.726 35.0969 118.676 34.9153C118.623 34.7276 118.576 34.536 118.534 34.3411C118.497 34.1537 118.464 33.9645 118.435 33.7736C118.402 33.5799 118.382 33.3813 118.375 33.1808C118.371 32.9898 118.373 32.7983 118.382 32.6072C118.39 32.409 118.415 32.2128 118.458 32.0244C118.504 31.8345 118.561 31.6509 118.628 31.4759C118.703 31.279 118.793 31.0957 118.895 30.93C119.252 30.3468 119.703 30.0327 120.246 29.9885C120.79 29.9438 121.321 30.1753 121.838 30.6814L122.536 29.5411C122.57 29.4862 122.613 29.4575 122.664 29.4559C122.688 29.4543 122.713 29.4601 122.735 29.473C122.758 29.486 122.778 29.5057 122.796 29.5312L123.363 30.3479C123.402 30.4043 123.423 30.4697 123.425 30.5436C123.427 30.618 123.409 30.6854 123.373 30.7446L122.69 31.8603C122.834 32.1155 122.959 32.387 123.065 32.6748C123.171 32.9625 123.249 33.208 123.3 33.4131C123.351 33.6177 123.392 33.8253 123.421 34.035C123.451 34.2451 123.468 34.3848 123.473 34.4548C123.477 34.5245 123.48 34.5847 123.481 34.6346C123.483 34.7789 123.44 34.8694 123.355 34.9054L122.448 35.3412C122.421 35.3572 122.392 35.3622 122.365 35.3556C122.337 35.349 122.311 35.331 122.289 35.3035C122.266 35.2811 122.246 35.2508 122.231 35.2148C122.216 35.1788 122.206 35.138 122.203 35.0953C122.2 35.0405 122.195 34.986 122.188 34.9319C122.172 34.7959 122.151 34.6612 122.127 34.5281C122.095 34.3384 122.054 34.1524 122.006 33.9712C121.947 33.7567 121.876 33.5508 121.794 33.3557C121.706 33.1391 121.6 32.9409 121.479 32.7657C121.213 32.3824 120.94 32.1606 120.661 32.1006C120.382 32.0405 120.154 32.1542 119.978 32.441C119.911 32.5513 119.861 32.67 119.827 32.7966C119.794 32.9246 119.782 33.0712 119.79 33.2383C119.798 33.4053 119.811 33.5553 119.828 33.6863C119.845 33.8182 119.883 33.9969 119.943 34.2218C120.003 34.4468 120.053 34.6265 120.092 34.7592C120.132 34.8924 120.195 35.0912 120.28 35.3567C120.376 35.6555 120.449 35.8855 120.498 36.0467C120.546 36.2083 120.608 36.4354 120.681 36.7285C120.755 37.0216 120.805 37.2635 120.833 37.4546C120.861 37.6458 120.883 37.8764 120.9 38.1469C120.916 38.4165 120.908 38.6577 120.876 38.8697C120.844 39.0816 120.789 39.3069 120.711 39.5455C120.634 39.7832 120.53 40.0084 120.401 40.22L120.401 40.2196Z"
            fill="#B27100" />
    </g>
    <g filter="url(#filter3_d_57_1167)">
        <path
            d="M13.4909 114.701C11.9145 113.776 10.9172 112.648 10.4957 111.469C10.3519 111.069 10.2776 110.663 10.2682 110.259L10.2694 110.028C10.3273 108.421 11.4223 106.832 13.5539 105.62C17.916 103.143 24.9583 103.191 29.283 105.728C31.4279 106.986 32.5028 108.622 32.5093 110.254C32.5111 110.712 32.4279 111.167 32.2629 111.614C31.8279 112.789 30.8112 113.905 29.22 114.809C24.8598 117.288 17.8176 117.239 13.4909 114.701Z"
            fill="#FDD849" stroke="black" stroke-width="0.5" stroke-linecap="round" stroke-linejoin="round" />
        <path
            d="M27.2951 106.858C24.0583 104.96 18.7896 104.922 15.5279 106.777C12.2662 108.631 12.2443 111.672 15.4811 113.57C18.7178 115.469 23.9865 115.506 27.2482 113.652C30.5099 111.798 30.5318 108.757 27.2951 106.858Z"
            fill="#FDA103" stroke="black" stroke-width="0.5" stroke-linecap="round" stroke-linejoin="round" />
        <path
            d="M13.4759 117.354C11.3663 116.117 10.292 114.515 10.2501 112.913L10.2506 112.693L10.2684 110.259C10.2779 110.663 10.3522 111.069 10.496 111.469C10.9175 112.648 11.9148 113.776 13.4912 114.701C17.8179 117.239 24.8601 117.288 29.2203 114.809C30.8115 113.905 31.8282 112.789 32.2632 111.614C32.4282 111.167 32.5114 110.712 32.5096 110.254L32.4923 112.861L32.4913 112.953C32.4769 114.593 31.3799 116.226 29.205 117.463C24.8429 119.94 17.8007 119.891 13.4759 117.354Z"
            fill="#FDA103" stroke="black" stroke-width="0.5" stroke-linecap="round" stroke-linejoin="round" />
        <path d="M31.6088 115.42L31.6268 112.771" stroke="black" stroke-width="0.5" stroke-linecap="round"
            stroke-linejoin="round" />
        <path d="M30.0948 116.89L30.1131 114.236" stroke="black" stroke-width="0.5" stroke-linecap="round"
            stroke-linejoin="round" />
        <path d="M28.5829 117.788L28.6024 115.132" stroke="black" stroke-width="0.5" stroke-linecap="round"
            stroke-linejoin="round" />
        <path d="M27.0734 118.405L27.0907 115.753" stroke="black" stroke-width="0.5" stroke-linecap="round"
            stroke-linejoin="round" />
        <path d="M25.5674 118.834L25.5858 116.18" stroke="black" stroke-width="0.5" stroke-linecap="round"
            stroke-linejoin="round" />
        <path d="M24.0617 119.109L24.0789 116.456" stroke="black" stroke-width="0.5" stroke-linecap="round"
            stroke-linejoin="round" />
        <path d="M22.5578 119.256L22.5751 116.604" stroke="black" stroke-width="0.5" stroke-linecap="round"
            stroke-linejoin="round" />
        <path d="M21.0499 119.284L21.0702 116.631" stroke="black" stroke-width="0.5" stroke-linecap="round"
            stroke-linejoin="round" />
        <path d="M19.546 119.193L19.5663 116.54" stroke="black" stroke-width="0.5" stroke-linecap="round"
            stroke-linejoin="round" />
        <path d="M17.8459 118.941L17.8651 116.29" stroke="black" stroke-width="0.5" stroke-linecap="round"
            stroke-linejoin="round" />
        <path d="M16.1438 118.513L16.161 115.861" stroke="black" stroke-width="0.5" stroke-linecap="round"
            stroke-linejoin="round" />
        <path d="M14.4446 117.86L14.4618 115.207" stroke="black" stroke-width="0.5" stroke-linecap="round"
            stroke-linejoin="round" />
        <path d="M12.7432 116.883L12.7443 116.881L12.7616 114.229" stroke="black" stroke-width="0.5"
            stroke-linecap="round" stroke-linejoin="round" />
        <path d="M11.6223 115.918L11.6414 113.267" stroke="black" stroke-width="0.5" stroke-linecap="round"
            stroke-linejoin="round" />
        <path
            d="M18.3111 112.044C17.7465 111.957 17.3595 111.728 17.1491 111.355C16.9393 110.982 16.9435 110.541 17.163 110.03L16.1954 109.882C16.1713 109.879 16.15 109.872 16.1327 109.861C16.1153 109.851 16.1025 109.837 16.0949 109.821C16.0873 109.804 16.085 109.785 16.0881 109.765C16.0913 109.745 16.0998 109.725 16.1132 109.706L16.5148 109.074C16.527 109.054 16.5437 109.035 16.5642 109.019C16.5847 109.002 16.6085 108.988 16.6341 108.976C16.6589 108.965 16.6853 108.956 16.7117 108.952C16.738 108.948 16.7638 108.947 16.7872 108.951L17.7548 109.099C17.9163 108.901 18.1008 108.71 18.3056 108.529C18.4756 108.376 18.6587 108.23 18.8531 108.092C19.0086 107.984 19.1708 107.882 19.3387 107.786C19.4512 107.721 19.5667 107.659 19.6848 107.6C19.7343 107.577 19.7848 107.554 19.8359 107.534C19.9473 107.493 20.0248 107.501 20.0691 107.559L20.5094 108.155C20.5327 108.183 20.5318 108.222 20.5072 108.273C20.4848 108.321 20.4446 108.356 20.3862 108.378L20.369 108.385C19.7799 108.682 19.3087 109.026 18.955 109.417C18.8525 109.527 18.7642 109.641 18.691 109.756C18.5303 110.009 18.4683 110.243 18.505 110.459C18.5417 110.675 18.7054 110.805 18.9969 110.85C19.1002 110.866 19.2126 110.857 19.3349 110.824C19.4484 110.795 19.5601 110.754 19.6665 110.703C19.766 110.655 19.8932 110.575 20.0477 110.462C20.1748 110.369 20.2994 110.275 20.4213 110.18C20.5628 110.066 20.702 109.95 20.8387 109.833C20.975 109.721 21.0823 109.632 21.1599 109.567C21.268 109.477 21.3778 109.389 21.4894 109.301C21.6042 109.21 21.7233 109.121 21.8465 109.035C21.9657 108.955 22.0873 108.877 22.2112 108.801C22.3363 108.722 22.4682 108.65 22.6052 108.587C22.7366 108.528 22.8702 108.474 23.0055 108.425C23.1451 108.372 23.2887 108.333 23.432 108.308C23.5771 108.284 23.7211 108.27 23.8621 108.265C24.0206 108.26 24.1739 108.269 24.3188 108.292C24.8276 108.37 25.1769 108.591 25.3659 108.955C25.5554 109.32 25.5494 109.755 25.3489 110.262L26.3437 110.414C26.3916 110.421 26.424 110.443 26.4401 110.478C26.4483 110.494 26.4513 110.513 26.4489 110.532C26.4465 110.552 26.4387 110.572 26.4261 110.591L26.0247 111.223C25.9969 111.266 25.9576 111.3 25.9068 111.323C25.8558 111.346 25.8039 111.353 25.7523 111.345L24.7789 111.196C24.6439 111.371 24.4919 111.537 24.3231 111.694C24.1542 111.851 24.0067 111.977 23.8794 112.073C23.7521 112.167 23.62 112.256 23.483 112.338C23.346 112.42 23.2539 112.472 23.2067 112.496C23.1596 112.519 23.1187 112.539 23.0844 112.554C22.9846 112.597 22.9095 112.594 22.8597 112.545L22.2929 112.043C22.274 112.029 22.2622 112.01 22.2586 111.989C22.2551 111.968 22.26 111.945 22.2728 111.922C22.2815 111.899 22.2967 111.876 22.3173 111.855C22.3379 111.834 22.3634 111.816 22.3921 111.801C22.4292 111.783 22.4656 111.764 22.5013 111.743C22.5908 111.692 22.6784 111.639 22.7638 111.583C22.8858 111.505 23.0031 111.423 23.1149 111.337C23.2465 111.233 23.3687 111.124 23.4801 111.01C23.6047 110.886 23.7115 110.755 23.7979 110.62C23.9864 110.324 24.0607 110.07 24.021 109.858C23.9813 109.647 23.8361 109.522 23.5858 109.484C23.4896 109.469 23.3927 109.469 23.2951 109.483C23.1966 109.497 23.0912 109.531 22.9777 109.586C22.8643 109.64 22.7639 109.692 22.6778 109.742C22.5913 109.793 22.4785 109.871 22.3398 109.978C22.2011 110.085 22.0909 110.172 22.0103 110.238C21.9296 110.305 21.8098 110.406 21.6503 110.543C21.4711 110.697 21.3327 110.814 21.235 110.895C21.137 110.976 20.9972 111.084 20.8153 111.221C20.6334 111.357 20.4803 111.463 20.3558 111.538C20.2312 111.613 20.0776 111.696 19.8947 111.786C19.7125 111.876 19.5427 111.941 19.3862 111.98C19.2297 112.02 19.0573 112.047 18.8692 112.063C18.6817 112.078 18.4953 112.072 18.3107 112.044L18.3111 112.044Z"
            fill="#B27100" />
    </g>
    <g filter="url(#filter4_d_57_1167)">
        <path
            d="M23.0555 103.949C21.3569 104.485 19.8892 104.469 18.761 104.003C18.3782 103.846 18.0361 103.635 17.7373 103.377L17.5715 103.226C16.4472 102.134 16.0132 100.304 16.529 97.9702C17.5875 93.1974 22.2231 88.136 26.8831 86.6658C29.1942 85.9366 31.0798 86.2281 32.2639 87.2894C32.5963 87.5872 32.8711 87.9449 33.0865 88.356C33.6526 89.4387 33.7951 90.9027 33.4096 92.6444C32.3533 97.4165 27.7176 102.478 23.0555 103.949Z"
            fill="#FDD849" stroke="black" stroke-width="0.5" stroke-linecap="round" stroke-linejoin="round" />
        <path
            d="M26.4009 88.8425C22.9133 89.9428 19.4444 93.7289 18.6546 97.2991C17.8647 100.869 20.0494 102.872 23.5371 101.771C27.0247 100.671 30.4936 96.885 31.2834 93.3147C32.0733 89.7445 29.8886 87.7421 26.4009 88.8425Z"
            fill="#FDA103" stroke="black" stroke-width="0.5" stroke-linecap="round" stroke-linejoin="round" />
        <path
            d="M24.9639 105.693C22.6907 106.41 20.8306 106.141 19.6443 105.124L19.4854 104.98L17.7369 103.377C18.0357 103.635 18.3778 103.846 18.7606 104.003C19.8887 104.469 21.3565 104.485 23.055 103.949C27.7172 102.478 32.3528 97.4165 33.4091 92.6444C33.7946 90.9027 33.6521 89.4387 33.086 88.356C32.8707 87.9449 32.5958 87.5872 32.2635 87.2894L34.1379 89.0054L34.2033 89.0658C35.3802 90.1479 35.8444 92.0079 35.318 94.3888C34.2596 99.1616 29.624 104.223 24.9639 105.693Z"
            fill="#FDA103" stroke="black" stroke-width="0.5" stroke-linecap="round" stroke-linejoin="round" />
        <path d="M35.411 91.3158L33.507 89.5721" stroke="black" stroke-width="0.5" stroke-linecap="round"
            stroke-linejoin="round" />
        <path d="M35.4846 93.3708L33.5771 91.6235" stroke="black" stroke-width="0.5" stroke-linecap="round"
            stroke-linejoin="round" />
        <path d="M35.1473 95.0511L33.2392 93.3017" stroke="black" stroke-width="0.5" stroke-linecap="round"
            stroke-linejoin="round" />
        <path d="M34.607 96.5454L32.7002 94.8003" stroke="black" stroke-width="0.5" stroke-linecap="round"
            stroke-linejoin="round" />
        <path d="M33.9328 97.9152L32.0254 96.168" stroke="black" stroke-width="0.5" stroke-linecap="round"
            stroke-linejoin="round" />
        <path d="M33.1489 99.1836L31.2422 97.4385" stroke="black" stroke-width="0.5" stroke-linecap="round"
            stroke-linejoin="round" />
        <path d="M32.272 100.367L30.3652 98.6221" stroke="black" stroke-width="0.5" stroke-linecap="round"
            stroke-linejoin="round" />
        <path d="M31.3078 101.477L29.4025 99.7288" stroke="black" stroke-width="0.5" stroke-linecap="round"
            stroke-linejoin="round" />
        <path d="M30.259 102.504L28.3536 100.756" stroke="black" stroke-width="0.5" stroke-linecap="round"
            stroke-linejoin="round" />
        <path d="M28.9663 103.569L27.0617 101.824" stroke="black" stroke-width="0.5" stroke-linecap="round"
            stroke-linejoin="round" />
        <path d="M27.5445 104.52L25.6377 102.775" stroke="black" stroke-width="0.5" stroke-linecap="round"
            stroke-linejoin="round" />
        <path d="M25.9614 105.322L24.0547 103.577" stroke="black" stroke-width="0.5" stroke-linecap="round"
            stroke-linejoin="round" />
        <path d="M24.1447 105.914L24.1441 105.912L22.2373 104.167" stroke="black" stroke-width="0.5"
            stroke-linecap="round" stroke-linejoin="round" />
        <path d="M22.7134 106.095L20.8087 104.349" stroke="black" stroke-width="0.5" stroke-linecap="round"
            stroke-linejoin="round" />
        <path
            d="M24.2819 98.7279C23.8506 99.0797 23.4318 99.2097 23.0248 99.1183C22.618 99.0264 22.3015 98.7349 22.0756 98.2426L21.3363 98.8456C21.3184 98.8611 21.2994 98.8719 21.2804 98.8775C21.2614 98.8831 21.243 98.8833 21.2262 98.8781C21.209 98.8726 21.1939 98.8619 21.1816 98.8467C21.1694 98.8316 21.1603 98.8122 21.1549 98.7897L20.9603 98.0864C20.9541 98.0649 20.9516 98.0405 20.9529 98.0149C20.9542 97.9891 20.9594 97.9626 20.968 97.9367C20.9757 97.9111 20.9869 97.8865 21.001 97.8646C21.015 97.8427 21.0316 97.8238 21.0495 97.8093L21.7888 97.2063C21.7511 96.9602 21.7335 96.7019 21.7364 96.4355C21.7366 96.2125 21.7505 95.9846 21.7779 95.754C21.8015 95.5711 21.8337 95.3871 21.8742 95.2032C21.9003 95.079 21.9309 94.955 21.9659 94.8316C21.981 94.7802 21.9979 94.7291 22.0164 94.6786C22.0593 94.5712 22.1161 94.5207 22.187 94.5266L22.9059 94.5976C22.941 94.5987 22.9688 94.6251 22.9894 94.676C23.0096 94.7237 23.0084 94.7755 22.9862 94.8321L22.9806 94.8495C22.8102 95.4694 22.7508 96.0346 22.8025 96.5457C22.8156 96.6922 22.8398 96.83 22.8753 96.9582C22.9532 97.2396 23.0822 97.4376 23.2624 97.5522C23.4426 97.6668 23.6438 97.6336 23.8666 97.452C23.9455 97.3876 24.0127 97.3007 24.0689 97.1908C24.1216 97.0894 24.1651 96.982 24.198 96.872C24.2282 96.7686 24.2532 96.6241 24.2721 96.4382C24.2885 96.2861 24.3019 96.1347 24.3123 95.984C24.3224 95.8071 24.3297 95.6309 24.3344 95.4557C24.3421 95.2836 24.3479 95.1479 24.3515 95.0492C24.3573 94.9126 24.3651 94.7753 24.3749 94.6376C24.3836 94.4947 24.3972 94.3506 24.4158 94.2056C24.4356 94.0669 24.4585 93.9279 24.4845 93.7886C24.5092 93.6467 24.5435 93.5044 24.587 93.3638C24.6305 93.2305 24.6787 93.0986 24.7314 92.9685C24.7845 92.8331 24.8498 92.7035 24.9253 92.5835C25.0031 92.4632 25.087 92.3499 25.1758 92.245C25.2756 92.1269 25.3822 92.0218 25.4933 91.932C25.8821 91.6149 26.2702 91.5068 26.6571 91.608C27.0443 91.709 27.3555 91.998 27.5909 92.4739L28.3509 91.854C28.3875 91.8241 28.424 91.8146 28.46 91.826C28.4772 91.8307 28.4925 91.8406 28.505 91.8551C28.5175 91.8695 28.5269 91.8882 28.5327 91.91L28.7273 92.613C28.7407 92.6616 28.7391 92.7118 28.7225 92.7634C28.7059 92.8154 28.6775 92.8579 28.638 92.89L27.8943 93.4966C27.9324 93.7083 27.953 93.9266 27.9564 94.1514C27.9598 94.3763 27.9545 94.5652 27.9404 94.7197C27.9257 94.8736 27.9037 95.0272 27.8731 95.1795C27.843 95.3322 27.8206 95.433 27.8069 95.4826C27.7931 95.5319 27.7805 95.5743 27.7692 95.6091C27.7351 95.7093 27.6838 95.7617 27.6162 95.766L26.8823 95.8475C26.86 95.8521 26.8389 95.8486 26.8212 95.8373C26.8036 95.8259 26.7899 95.8072 26.7817 95.7829C26.7707 95.7617 26.7643 95.7358 26.7626 95.7073C26.761 95.6788 26.7643 95.6482 26.7723 95.6179C26.7834 95.5791 26.7933 95.5402 26.8019 95.5012C26.8235 95.403 26.8421 95.3048 26.8578 95.2069C26.8812 95.0677 26.8982 94.9291 26.9089 94.7919C26.9201 94.6291 26.9209 94.4694 26.9113 94.3144C26.9029 94.1431 26.8778 93.9803 26.8368 93.8297C26.7454 93.4997 26.6104 93.28 26.4317 93.1707C26.2529 93.0613 26.0676 93.0847 25.8764 93.2407C25.8028 93.3006 25.7394 93.3707 25.6857 93.4503C25.6318 93.5308 25.5875 93.6293 25.5527 93.7469C25.518 93.8646 25.4903 93.9714 25.4702 94.0662C25.4502 94.1618 25.4332 94.2947 25.42 94.4649C25.4067 94.6351 25.3977 94.7716 25.3929 94.8731C25.3882 94.975 25.3834 95.1278 25.3777 95.3322C25.3722 95.5625 25.3665 95.7393 25.3612 95.8627C25.3556 95.9864 25.3429 96.1585 25.3228 96.3792C25.3026 96.5999 25.2789 96.7796 25.252 96.9188C25.2248 97.0578 25.1842 97.2229 25.13 97.4141C25.076 97.6047 25.0118 97.7697 24.9381 97.9087C24.8644 98.0476 24.7716 98.1901 24.6601 98.3365C24.5488 98.4822 24.4226 98.6131 24.2816 98.7281L24.2819 98.7279Z"
            fill="#B27100" />
    </g>
    <defs>
        <filter id="filter0_d_57_1167" x="29.5" y="0.161621" width="75.6416" height="99.5288"
            filterUnits="userSpaceOnUse" color-interpolation-filters="sRGB">
            <feFlood flood-opacity="0" result="BackgroundImageFix" />
            <feColorMatrix in="SourceAlpha" type="matrix" values="0 0 0 0 0 0 0 0 0 0 0 0 0 0 0 0 0 0 127 0"
                result="hardAlpha" />
            <feOffset dx="2" dy="1" />
            <feGaussianBlur stdDeviation="5" />
            <feComposite in2="hardAlpha" operator="out" />
            <feColorMatrix type="matrix" values="0 0 0 0 0.992157 0 0 0 0 0.631373 0 0 0 0 0.0117647 0 0 0 0.5 0" />
            <feBlend mode="normal" in2="BackgroundImageFix" result="effect1_dropShadow_57_1167" />
            <feBlend mode="normal" in="SourceGraphic" in2="effect1_dropShadow_57_1167" result="shape" />
        </filter>
        <filter id="filter1_i_57_1167" x="37.5" y="9.16162" width="47.3301" height="82.2915"
            filterUnits="userSpaceOnUse" color-interpolation-filters="sRGB">
            <feFlood flood-opacity="0" result="BackgroundImageFix" />
            <feBlend mode="normal" in="SourceGraphic" in2="BackgroundImageFix" result="shape" />
            <feColorMatrix in="SourceAlpha" type="matrix" values="0 0 0 0 0 0 0 0 0 0 0 0 0 0 0 0 0 0 127 0"
                result="hardAlpha" />
            <feOffset dx="1" dy="3" />
            <feGaussianBlur stdDeviation="2" />
            <feComposite in2="hardAlpha" operator="arithmetic" k2="-1" k3="1" />
            <feColorMatrix type="matrix" values="0 0 0 0 1 0 0 0 0 1 0 0 0 0 1 0 0 0 0.99 0" />
            <feBlend mode="normal" in2="shape" result="effect1_innerShadow_57_1167" />
        </filter>
        <filter id="filter2_d_57_1167" x="99.5771" y="11.1138" width="43.5723" height="50.1758"
            filterUnits="userSpaceOnUse" color-interpolation-filters="sRGB">
            <feFlood flood-opacity="0" result="BackgroundImageFix" />
            <feColorMatrix in="SourceAlpha" type="matrix" values="0 0 0 0 0 0 0 0 0 0 0 0 0 0 0 0 0 0 127 0"
                result="hardAlpha" />
            <feOffset />
            <feGaussianBlur stdDeviation="5" />
            <feComposite in2="hardAlpha" operator="out" />
            <feColorMatrix type="matrix" values="0 0 0 0 0.992157 0 0 0 0 0.631373 0 0 0 0 0.0117647 0 0 0 0.3 0" />
            <feBlend mode="normal" in2="BackgroundImageFix" result="effect1_dropShadow_57_1167" />
            <feBlend mode="normal" in="SourceGraphic" in2="effect1_dropShadow_57_1167" result="shape" />
        </filter>
        <filter id="filter3_d_57_1167" x="0" y="93.543" width="42.7598" height="35.9961" filterUnits="userSpaceOnUse"
            color-interpolation-filters="sRGB">
            <feFlood flood-opacity="0" result="BackgroundImageFix" />
            <feColorMatrix in="SourceAlpha" type="matrix" values="0 0 0 0 0 0 0 0 0 0 0 0 0 0 0 0 0 0 127 0"
                result="hardAlpha" />
            <feOffset />
            <feGaussianBlur stdDeviation="5" />
            <feComposite in2="hardAlpha" operator="out" />
            <feColorMatrix type="matrix" values="0 0 0 0 0.992157 0 0 0 0 0.631373 0 0 0 0 0.0117647 0 0 0 0.3 0" />
            <feBlend mode="normal" in2="BackgroundImageFix" result="effect1_dropShadow_57_1167" />
            <feBlend mode="normal" in="SourceGraphic" in2="effect1_dropShadow_57_1167" result="shape" />
        </filter>
        <filter id="filter4_d_57_1167" x="6.06348" y="76.0132" width="39.7197" height="40.333"
            filterUnits="userSpaceOnUse" color-interpolation-filters="sRGB">
            <feFlood flood-opacity="0" result="BackgroundImageFix" />
            <feColorMatrix in="SourceAlpha" type="matrix" values="0 0 0 0 0 0 0 0 0 0 0 0 0 0 0 0 0 0 127 0"
                result="hardAlpha" />
            <feOffset />
            <feGaussianBlur stdDeviation="5" />
            <feComposite in2="hardAlpha" operator="out" />
            <feColorMatrix type="matrix" values="0 0 0 0 0.992157 0 0 0 0 0.631373 0 0 0 0 0.0117647 0 0 0 0.3 0" />
            <feBlend mode="normal" in2="BackgroundImageFix" result="effect1_dropShadow_57_1167" />
            <feBlend mode="normal" in="SourceGraphic" in2="effect1_dropShadow_57_1167" result="shape" />
        </filter>
    </defs>
</svg>